<svg id="svg" xmlns="http://www.w3.org/2000/svg" xmlns:xlink="http://www.w3.org/1999/xlink" width="400" height="392.39704329461455" viewBox="0, 0, 400,392.39704329461455"><g id="svgg"><path id="path0" d="M127.032 299.102 L 114.150 312.038 127.086 299.156 C 134.200 292.071,140.021 286.250,140.021 286.220 C 140.021 286.072,139.007 287.078,127.032 299.102 " stroke="none" fill="#3cd4c4" fill-rule="evenodd"></path><path id="path1" d="" stroke="none" fill="#40d4c4" fill-rule="evenodd"></path><path id="path2" d="" stroke="none" fill="#40d4c4" fill-rule="evenodd"></path><path id="path3" d="M387.434 11.640 C 385.692 12.097,384.124 12.510,383.949 12.559 C 383.775 12.608,382.492 12.946,381.098 13.311 C 379.704 13.675,378.041 14.148,377.402 14.361 C 376.763 14.574,375.653 14.900,374.935 15.085 C 374.217 15.270,372.792 15.697,371.767 16.035 C 370.743 16.372,369.192 16.857,368.321 17.112 C 366.709 17.583,361.855 19.127,359.556 19.899 C 355.073 21.404,350.261 23.063,348.997 23.541 C 348.184 23.848,346.996 24.277,346.357 24.495 C 344.628 25.085,341.368 26.269,339.810 26.873 C 339.055 27.165,337.392 27.803,336.114 28.289 C 334.836 28.775,333.577 29.262,333.316 29.370 C 333.054 29.478,332.627 29.649,332.365 29.750 C 332.104 29.851,331.177 30.221,330.306 30.573 C 329.435 30.925,328.295 31.373,327.772 31.569 C 327.249 31.764,325.681 32.399,324.287 32.980 C 322.893 33.561,321.563 34.113,321.331 34.209 C 321.098 34.304,320.528 34.549,320.063 34.755 C 319.599 34.960,319.195 35.112,319.166 35.093 C 319.136 35.073,318.758 35.248,318.324 35.480 C 317.890 35.713,317.462 35.903,317.371 35.903 C 317.281 35.903,316.805 36.085,316.312 36.308 C 315.179 36.820,313.320 37.616,313.257 37.615 C 313.204 37.614,310.905 38.639,309.293 39.383 C 308.712 39.651,307.809 40.061,307.286 40.294 C 305.053 41.290,301.229 43.063,298.099 44.555 C 294.247 46.391,280.773 53.077,280.676 53.201 C 280.618 53.275,279.667 53.789,278.564 54.344 C 275.995 55.634,274.752 56.298,270.783 58.501 C 266.552 60.848,266.681 60.775,266.315 61.021 C 266.140 61.138,265.380 61.556,264.625 61.949 C 263.870 62.343,262.906 62.901,262.482 63.188 C 262.058 63.476,261.416 63.834,261.056 63.983 C 260.696 64.132,260.401 64.337,260.401 64.440 C 260.401 64.542,260.282 64.629,260.137 64.635 C 259.992 64.640,258.875 65.249,257.656 65.987 C 256.436 66.725,254.440 67.925,253.221 68.653 C 252.001 69.381,250.956 70.041,250.898 70.120 C 250.839 70.199,250.337 70.515,249.782 70.823 C 248.774 71.382,247.813 71.973,247.413 72.282 C 246.792 72.761,245.573 73.495,245.397 73.495 C 245.286 73.495,245.195 73.590,245.195 73.706 C 245.195 73.823,245.094 73.918,244.969 73.918 C 244.845 73.918,244.299 74.226,243.755 74.604 C 243.211 74.981,242.531 75.415,242.243 75.567 C 241.954 75.719,241.337 76.128,240.870 76.476 C 239.925 77.180,237.079 79.074,235.988 79.725 C 235.599 79.958,235.108 80.290,234.897 80.465 C 234.687 80.639,233.947 81.162,233.255 81.626 C 232.562 82.091,231.964 82.542,231.925 82.629 C 231.887 82.716,231.728 82.788,231.573 82.788 C 231.419 82.788,231.260 82.863,231.221 82.955 C 231.183 83.047,230.723 83.408,230.201 83.759 C 228.180 85.113,226.924 86.030,226.857 86.200 C 226.818 86.298,226.695 86.378,226.584 86.378 C 226.369 86.378,226.304 86.424,225.104 87.427 C 224.682 87.779,224.268 88.068,224.184 88.068 C 224.048 88.068,222.444 89.249,222.175 89.547 C 222.117 89.611,221.554 90.029,220.924 90.476 C 220.294 90.922,219.676 91.370,219.551 91.471 C 218.504 92.318,217.504 93.083,217.099 93.347 C 216.833 93.522,216.463 93.808,216.277 93.984 C 216.091 94.160,215.608 94.531,215.203 94.809 C 214.798 95.086,214.372 95.418,214.256 95.545 C 214.139 95.672,213.506 96.177,212.849 96.666 C 212.191 97.156,211.406 97.774,211.104 98.039 C 210.802 98.304,210.343 98.682,210.082 98.878 C 209.433 99.367,203.162 104.509,202.640 104.982 C 202.408 105.192,201.837 105.690,201.373 106.089 C 199.623 107.591,198.402 108.673,197.994 109.082 C 197.761 109.314,197.286 109.726,196.938 109.997 C 196.251 110.529,193.362 113.178,189.989 116.367 C 188.822 117.471,185.584 120.653,182.793 123.438 C 178.394 127.829,175.771 130.095,175.087 130.095 C 174.983 130.095,174.772 130.214,174.617 130.359 C 174.463 130.504,173.791 130.908,173.125 131.257 C 172.458 131.605,171.912 131.961,171.912 132.049 C 171.912 132.136,171.804 132.207,171.673 132.207 C 171.542 132.207,170.250 132.920,168.801 133.791 C 167.352 134.662,166.122 135.375,166.068 135.375 C 166.013 135.375,165.571 135.647,165.086 135.980 C 164.600 136.312,163.989 136.651,163.728 136.733 C 163.466 136.815,163.252 136.970,163.252 137.079 C 163.252 137.187,163.154 137.276,163.033 137.276 C 162.805 137.276,157.028 140.611,156.039 141.313 C 155.731 141.532,155.396 141.711,155.295 141.711 C 155.194 141.711,154.618 142.036,154.014 142.434 C 153.410 142.831,152.723 143.218,152.488 143.293 C 152.252 143.367,152.059 143.517,152.059 143.626 C 152.059 143.734,151.940 143.827,151.795 143.832 C 151.650 143.837,150.771 144.310,149.842 144.883 C 148.912 145.456,147.677 146.177,147.096 146.486 C 146.515 146.795,145.660 147.307,145.195 147.624 C 144.731 147.940,144.137 148.267,143.875 148.349 C 143.614 148.430,143.400 148.586,143.400 148.694 C 143.400 148.803,143.279 148.891,143.131 148.891 C 142.984 148.891,142.358 149.224,141.740 149.630 C 141.123 150.037,140.573 150.370,140.519 150.370 C 140.465 150.370,139.512 150.916,138.402 151.584 C 137.293 152.252,135.916 153.056,135.342 153.371 C 134.769 153.687,134.043 154.126,133.729 154.347 C 133.414 154.568,132.944 154.816,132.682 154.897 C 132.421 154.978,132.207 155.133,132.207 155.241 C 132.207 155.350,132.108 155.438,131.987 155.438 C 131.760 155.438,125.982 158.773,124.994 159.475 C 124.685 159.694,124.336 159.873,124.217 159.873 C 124.098 159.873,123.872 159.992,123.714 160.137 C 123.341 160.481,122.328 161.069,121.595 161.368 C 121.275 161.498,121.014 161.690,121.014 161.795 C 121.014 161.899,120.895 161.989,120.750 161.995 C 120.605 162.000,119.725 162.473,118.796 163.046 C 117.867 163.619,116.631 164.340,116.051 164.649 C 115.470 164.957,114.615 165.469,114.150 165.786 C 113.685 166.103,113.091 166.429,112.830 166.511 C 112.569 166.593,112.355 166.749,112.355 166.857 C 112.355 166.965,112.256 167.054,112.135 167.054 C 111.897 167.054,106.431 170.224,105.092 171.139 C 104.640 171.448,104.182 171.700,104.074 171.700 C 103.966 171.700,103.480 171.972,102.995 172.305 C 102.509 172.637,101.898 172.976,101.637 173.058 C 101.375 173.140,101.162 173.296,101.162 173.404 C 101.162 173.512,101.043 173.605,100.898 173.610 C 100.752 173.615,99.873 174.084,98.944 174.652 C 98.015 175.220,96.779 175.941,96.199 176.255 C 95.618 176.568,94.745 177.097,94.260 177.430 C 93.774 177.763,93.282 178.036,93.166 178.036 C 93.050 178.036,92.829 178.155,92.674 178.300 C 92.520 178.445,91.848 178.849,91.182 179.197 C 90.515 179.546,89.969 179.902,89.969 179.989 C 89.969 180.077,89.865 180.148,89.738 180.148 C 89.507 180.148,85.309 182.562,83.310 183.844 C 82.726 184.218,82.037 184.591,81.779 184.673 C 81.521 184.755,81.309 184.911,81.309 185.020 C 81.309 185.128,81.211 185.216,81.090 185.216 C 80.830 185.216,74.897 188.670,74.158 189.251 C 73.878 189.471,73.542 189.652,73.411 189.652 C 73.280 189.652,72.699 189.970,72.120 190.360 C 71.540 190.750,70.853 191.136,70.591 191.219 C 70.330 191.302,70.116 191.458,70.116 191.567 C 70.116 191.675,69.997 191.768,69.852 191.773 C 69.707 191.778,68.828 192.251,67.899 192.824 C 66.969 193.397,65.734 194.118,65.153 194.427 C 64.572 194.736,63.700 195.261,63.214 195.593 C 62.729 195.926,62.237 196.199,62.121 196.199 C 62.005 196.199,61.783 196.317,61.629 196.463 C 61.474 196.608,60.803 197.012,60.136 197.360 C 59.470 197.709,58.924 198.065,58.924 198.152 C 58.923 198.239,58.816 198.310,58.685 198.310 C 58.554 198.310,57.261 199.023,55.813 199.894 C 54.364 200.766,53.134 201.478,53.079 201.478 C 53.025 201.478,52.583 201.750,52.097 202.083 C 51.612 202.416,51.001 202.755,50.739 202.836 C 50.478 202.918,50.264 203.074,50.264 203.182 C 50.264 203.290,50.165 203.379,50.044 203.379 C 49.817 203.379,44.039 206.714,43.051 207.416 C 42.742 207.635,42.408 207.814,42.307 207.814 C 42.206 207.814,41.629 208.139,41.026 208.537 C 40.422 208.935,39.735 209.321,39.499 209.396 C 39.264 209.471,39.071 209.621,39.071 209.729 C 39.071 209.837,38.952 209.930,38.807 209.935 C 38.662 209.941,37.782 210.414,36.853 210.987 C 35.924 211.560,34.688 212.281,34.108 212.590 C 33.527 212.898,32.672 213.410,32.207 213.727 C 31.742 214.044,31.148 214.370,30.887 214.452 C 30.626 214.534,30.412 214.689,30.412 214.798 C 30.412 214.906,30.291 214.995,30.143 214.995 C 29.995 214.995,29.369 215.327,28.752 215.734 C 28.135 216.140,27.584 216.473,27.528 216.473 C 27.363 216.473,23.801 218.606,23.271 219.022 L 22.783 219.406 23.482 219.524 C 24.267 219.657,30.258 220.388,32.207 220.589 C 32.904 220.661,34.092 220.808,34.847 220.916 C 35.602 221.023,36.600 221.153,37.064 221.205 C 37.828 221.289,42.197 221.816,44.199 222.065 C 44.638 222.120,46.919 222.403,49.268 222.694 C 51.616 222.986,55.866 223.514,58.712 223.868 C 61.558 224.222,64.694 224.598,65.681 224.704 C 66.668 224.811,69.710 225.182,72.439 225.530 C 75.169 225.878,77.973 226.221,78.669 226.292 C 79.366 226.363,80.554 226.510,81.309 226.618 C 82.064 226.726,83.062 226.856,83.527 226.907 C 84.401 227.003,89.222 227.586,90.707 227.775 C 93.786 228.168,104.877 229.524,112.839 230.482 C 113.399 230.549,117.001 225.924,117.001 225.136 C 117.001 225.018,117.096 224.921,117.212 224.921 C 117.328 224.921,117.423 224.778,117.423 224.604 C 117.423 224.430,117.518 224.287,117.635 224.287 C 117.751 224.287,117.846 224.153,117.846 223.988 C 117.846 223.823,117.924 223.657,118.019 223.618 C 118.264 223.519,119.958 220.977,119.958 220.709 C 119.958 220.586,120.053 220.486,120.169 220.486 C 120.285 220.486,120.380 220.392,120.380 220.277 C 120.380 220.162,120.521 219.901,120.693 219.696 C 120.865 219.492,121.157 219.134,121.342 218.902 C 121.527 218.669,121.638 218.574,121.588 218.691 C 121.151 219.705,117.621 230.865,117.319 232.187 C 117.263 232.430,116.793 234.257,116.273 236.246 C 115.754 238.235,115.278 240.089,115.216 240.364 C 115.154 240.640,114.772 242.287,114.368 244.024 C 113.964 245.761,113.593 247.424,113.542 247.720 C 113.492 248.016,113.354 248.685,113.236 249.208 C 113.118 249.731,112.968 250.491,112.904 250.898 C 112.839 251.304,112.649 252.350,112.481 253.221 C 111.631 257.625,111.600 257.408,113.343 259.214 C 114.142 260.041,115.027 260.983,115.309 261.307 L 115.823 261.896 71.167 306.552 L 26.511 351.208 27.875 352.584 C 28.624 353.341,29.336 353.960,29.455 353.960 C 29.575 353.960,49.732 333.900,74.250 309.383 L 118.828 264.805 121.092 267.081 L 123.357 269.357 72.299 320.415 L 21.242 371.473 21.756 372.062 C 22.040 372.385,22.651 373.056,23.116 373.552 L 23.961 374.454 75.091 323.325 L 126.220 272.196 128.684 274.694 L 131.148 277.191 84.262 324.079 L 37.375 370.967 38.704 372.284 C 39.435 373.008,40.125 373.601,40.238 373.601 C 40.351 373.601,61.494 352.550,87.223 326.822 L 134.002 280.043 135.566 281.752 L 137.129 283.462 97.869 322.723 L 58.608 361.983 60.051 363.410 L 61.494 364.836 100.728 325.480 L 139.962 286.123 142.809 288.996 C 144.374 290.576,145.790 291.869,145.956 291.869 C 146.788 291.869,158.592 288.152,158.975 287.769 C 159.043 287.701,159.236 287.645,159.404 287.645 C 159.740 287.645,163.563 286.280,164.147 285.951 C 164.349 285.837,164.616 285.744,164.741 285.744 C 164.867 285.744,165.488 285.507,166.123 285.216 C 166.758 284.926,167.379 284.688,167.503 284.688 C 167.628 284.688,168.076 284.539,168.500 284.356 C 169.388 283.973,170.267 283.594,171.172 283.203 C 171.521 283.052,171.901 282.903,172.017 282.870 C 172.322 282.786,176.476 281.030,177.719 280.461 C 178.300 280.194,178.870 279.955,178.986 279.930 C 179.102 279.904,180.148 279.432,181.309 278.882 C 182.471 278.331,184.419 277.410,185.639 276.835 C 186.859 276.259,188.967 275.225,190.324 274.536 C 192.731 273.315,194.088 272.838,192.608 273.733 C 192.202 273.979,191.837 274.263,191.799 274.366 C 191.760 274.468,191.640 274.551,191.531 274.551 C 191.423 274.551,190.742 274.974,190.018 275.490 C 189.294 276.007,188.321 276.701,187.856 277.032 C 187.392 277.363,186.752 277.764,186.434 277.922 C 186.117 278.080,185.689 278.360,185.484 278.545 C 185.055 278.931,182.339 280.790,181.290 281.415 C 180.900 281.647,180.388 282.004,180.151 282.207 C 179.914 282.410,179.627 282.577,179.512 282.577 C 179.397 282.577,179.303 282.672,179.303 282.788 C 179.303 282.904,179.161 282.999,178.986 282.999 C 178.812 282.999,178.669 283.094,178.669 283.210 C 178.669 283.326,178.527 283.421,178.353 283.421 C 178.178 283.421,178.036 283.516,178.036 283.633 C 178.036 283.749,177.893 283.844,177.719 283.844 C 177.545 283.844,177.402 283.939,177.402 284.055 C 177.402 284.171,177.304 284.266,177.183 284.266 C 176.997 284.266,173.502 286.524,172.862 287.058 C 172.746 287.155,171.819 287.768,170.803 288.420 C 168.733 289.748,168.798 289.597,169.183 292.186 C 169.303 292.999,169.442 294.092,169.491 294.615 C 169.540 295.137,169.629 295.898,169.689 296.304 C 169.748 296.711,169.848 297.566,169.910 298.205 C 169.971 298.844,170.112 300.079,170.222 300.950 C 170.331 301.822,170.575 303.904,170.762 305.577 C 170.950 307.251,171.136 308.787,171.175 308.992 C 171.215 309.196,171.311 310.060,171.388 310.912 C 171.466 311.764,171.558 312.508,171.593 312.566 C 171.627 312.624,171.719 313.479,171.797 314.467 C 171.875 315.454,171.976 316.404,172.021 316.579 C 172.066 316.753,172.206 317.861,172.332 319.042 C 172.459 320.222,172.605 321.410,172.658 321.682 C 172.711 321.953,172.803 322.746,172.863 323.442 C 172.923 324.139,173.013 324.947,173.064 325.238 C 173.115 325.528,173.215 326.336,173.285 327.033 C 173.356 327.730,173.607 329.916,173.843 331.890 C 174.080 333.865,174.305 335.813,174.345 336.220 C 174.384 336.626,174.469 337.339,174.533 337.804 C 174.597 338.268,174.704 339.171,174.770 339.810 C 174.837 340.449,175.074 342.540,175.297 344.456 C 175.521 346.373,175.758 348.416,175.825 348.997 C 175.892 349.578,175.984 350.290,176.030 350.581 C 176.075 350.871,176.168 351.727,176.237 352.482 C 176.305 353.237,176.401 354.092,176.451 354.382 C 176.501 354.673,176.590 355.385,176.650 355.966 C 176.851 357.936,177.447 362.933,177.530 363.358 C 177.576 363.590,177.665 364.398,177.728 365.153 C 177.791 365.908,177.880 366.668,177.926 366.843 C 177.972 367.017,178.067 367.872,178.137 368.743 C 178.208 369.615,178.308 370.565,178.359 370.855 C 178.455 371.405,179.076 376.535,179.202 377.825 C 179.360 379.453,179.550 380.362,179.710 380.263 C 179.884 380.155,182.260 376.245,182.260 376.066 C 182.260 376.010,182.977 374.811,183.854 373.401 C 184.730 371.991,185.508 370.675,185.583 370.477 C 185.657 370.278,186.414 369.002,187.265 367.641 C 188.116 366.280,188.907 364.950,189.023 364.685 C 189.139 364.420,189.446 363.862,189.707 363.446 C 191.510 360.561,192.397 359.043,192.397 358.841 C 192.397 358.712,192.486 358.606,192.594 358.606 C 192.702 358.606,192.855 358.406,192.932 358.160 C 193.010 357.915,193.632 356.829,194.315 355.746 C 194.997 354.662,195.829 353.271,196.163 352.654 C 196.498 352.036,197.408 350.502,198.186 349.245 C 198.964 347.987,199.691 346.752,199.802 346.499 C 199.914 346.247,200.217 345.700,200.477 345.284 C 202.281 342.398,203.168 340.881,203.168 340.678 C 203.168 340.549,203.257 340.444,203.365 340.444 C 203.473 340.444,203.625 340.243,203.703 339.998 C 203.817 339.639,204.944 337.728,206.553 335.164 C 206.663 334.989,206.927 334.514,207.140 334.108 C 207.354 333.701,208.168 332.340,208.950 331.082 C 209.731 329.825,210.462 328.589,210.573 328.337 C 210.684 328.084,210.988 327.537,211.248 327.121 C 213.052 324.236,213.939 322.718,213.939 322.516 C 213.939 322.386,214.027 322.281,214.136 322.281 C 214.244 322.281,214.394 322.088,214.468 321.853 C 214.543 321.618,215.314 320.283,216.182 318.888 C 217.050 317.492,217.822 316.187,217.898 315.989 C 217.973 315.791,218.585 314.754,219.257 313.685 C 219.930 312.616,220.805 311.143,221.202 310.412 C 221.598 309.680,222.549 308.083,223.315 306.864 C 224.081 305.644,224.708 304.527,224.708 304.382 C 224.709 304.237,224.798 304.118,224.907 304.118 C 225.015 304.118,225.164 303.928,225.238 303.695 C 225.312 303.462,225.925 302.392,226.599 301.319 C 227.274 300.245,228.118 298.826,228.476 298.165 C 228.833 297.505,229.610 296.190,230.203 295.245 C 230.795 294.300,231.598 292.939,231.987 292.222 C 232.376 291.505,233.320 289.921,234.086 288.701 C 234.852 287.482,235.479 286.365,235.479 286.220 C 235.480 286.074,235.569 285.956,235.677 285.956 C 235.786 285.956,235.935 285.765,236.009 285.532 C 236.083 285.299,236.695 284.230,237.370 283.156 C 238.045 282.082,238.880 280.681,239.226 280.042 C 239.572 279.403,240.493 277.849,241.273 276.588 C 242.053 275.327,242.750 274.139,242.821 273.948 C 242.892 273.757,243.647 272.487,244.498 271.126 C 245.349 269.765,246.140 268.434,246.256 268.169 C 246.372 267.904,246.680 267.347,246.940 266.932 C 248.327 264.715,250.264 261.488,250.264 261.394 C 250.264 261.335,250.981 260.133,251.858 258.723 C 252.735 257.313,253.513 255.997,253.587 255.799 C 253.661 255.601,254.418 254.325,255.269 252.963 C 256.120 251.602,256.911 250.272,257.027 250.007 C 257.143 249.742,257.451 249.185,257.711 248.769 C 259.098 246.553,261.035 243.326,261.035 243.232 C 261.035 243.172,261.752 241.970,262.629 240.561 C 263.506 239.151,264.283 237.835,264.358 237.636 C 264.432 237.438,265.189 236.162,266.040 234.801 C 266.891 233.439,267.682 232.109,267.798 231.844 C 267.914 231.579,268.222 231.022,268.482 230.606 C 269.868 228.390,271.806 225.163,271.806 225.069 C 271.806 225.010,272.523 223.808,273.400 222.398 C 274.276 220.988,275.054 219.672,275.128 219.474 C 275.203 219.275,275.960 217.999,276.811 216.638 C 277.662 215.277,278.456 213.946,278.576 213.681 C 278.695 213.416,278.908 213.009,279.048 212.776 C 280.751 209.946,281.630 208.815,283.914 206.512 C 287.338 203.058,293.016 197.072,293.612 196.288 C 293.873 195.944,294.467 195.278,294.931 194.808 C 295.396 194.337,296.156 193.501,296.621 192.949 C 297.086 192.397,297.751 191.630,298.099 191.246 C 298.448 190.861,299.065 190.168,299.472 189.706 C 299.879 189.243,300.544 188.493,300.950 188.040 C 301.357 187.586,301.975 186.849,302.323 186.402 C 302.672 185.956,303.406 185.102,303.954 184.506 C 304.503 183.909,304.954 183.364,304.957 183.294 C 304.960 183.224,305.224 182.882,305.544 182.533 C 306.490 181.499,307.800 179.899,307.999 179.536 C 308.100 179.350,308.294 179.102,308.430 178.986 C 308.566 178.870,309.313 177.967,310.092 176.980 C 310.871 175.993,311.651 175.034,311.826 174.850 C 312.000 174.666,312.144 174.405,312.144 174.270 C 312.144 174.134,312.218 174.023,312.310 174.023 C 312.460 174.023,312.952 173.427,314.150 171.791 C 314.382 171.474,314.833 170.920,315.151 170.560 C 315.469 170.200,315.785 169.739,315.852 169.535 C 315.919 169.332,316.062 169.166,316.171 169.166 C 316.279 169.166,316.367 169.028,316.367 168.859 C 316.367 168.691,316.496 168.477,316.652 168.384 C 316.809 168.291,317.379 167.598,317.919 166.843 C 318.459 166.088,318.975 165.375,319.065 165.259 C 320.581 163.308,321.225 162.399,321.225 162.212 C 321.225 162.087,321.320 161.985,321.436 161.985 C 321.552 161.985,321.647 161.843,321.647 161.668 C 321.647 161.494,321.726 161.352,321.823 161.352 C 321.920 161.352,322.319 160.853,322.711 160.243 C 323.103 159.633,323.499 159.102,323.591 159.064 C 323.684 159.025,323.759 158.859,323.759 158.694 C 323.759 158.530,323.834 158.395,323.926 158.395 C 324.017 158.395,324.512 157.753,325.026 156.969 C 325.540 156.185,326.126 155.365,326.328 155.146 C 326.530 154.927,326.844 154.432,327.027 154.047 C 327.210 153.662,327.579 153.081,327.847 152.756 C 328.365 152.128,332.629 145.768,332.629 145.624 C 332.629 145.577,333.057 144.914,333.580 144.151 C 334.102 143.387,334.530 142.720,334.530 142.668 C 334.530 142.617,334.910 142.032,335.375 141.368 C 335.839 140.705,336.220 140.043,336.220 139.898 C 336.220 139.753,336.305 139.602,336.409 139.564 C 336.513 139.525,336.869 139.046,337.201 138.499 C 340.200 133.549,341.648 131.126,342.037 130.404 C 342.806 128.975,343.077 128.516,343.217 128.405 C 343.291 128.347,343.671 127.708,344.062 126.985 C 344.453 126.261,344.982 125.311,345.237 124.873 C 345.492 124.435,345.864 123.743,346.064 123.337 C 346.264 122.930,346.541 122.455,346.680 122.281 C 346.819 122.107,347.359 121.156,347.881 120.169 C 348.403 119.182,349.047 117.994,349.313 117.529 C 349.578 117.064,350.456 115.401,351.264 113.833 C 352.072 112.265,352.831 110.863,352.950 110.718 C 353.069 110.573,353.084 110.453,352.983 110.451 C 352.881 110.449,352.900 110.378,353.024 110.292 C 353.237 110.146,357.643 101.369,359.570 97.254 C 360.059 96.209,360.796 94.641,361.207 93.770 C 361.618 92.899,362.204 91.616,362.510 90.919 C 363.101 89.573,363.393 88.932,364.604 86.328 C 365.022 85.429,365.364 84.645,365.364 84.586 C 365.364 84.527,365.697 83.759,366.103 82.879 C 366.510 81.999,366.843 81.164,366.843 81.024 C 366.843 80.884,366.967 80.582,367.120 80.353 C 367.272 80.124,367.756 79.034,368.195 77.930 C 368.634 76.827,369.086 75.749,369.199 75.535 C 369.312 75.322,369.925 73.801,370.560 72.156 C 371.196 70.511,371.890 68.786,372.103 68.321 C 372.316 67.856,372.556 67.239,372.636 66.948 C 372.795 66.377,372.907 66.093,373.570 64.596 C 373.808 64.057,374.069 63.344,374.148 63.012 C 374.228 62.679,374.362 62.313,374.447 62.196 C 374.585 62.008,375.149 60.460,375.178 60.190 C 375.192 60.062,375.684 58.769,375.941 58.184 C 376.446 57.035,378.036 52.471,378.036 52.170 C 378.036 51.981,378.119 51.737,378.221 51.626 C 378.374 51.460,379.152 49.355,379.192 48.997 C 379.199 48.939,379.262 48.796,379.332 48.680 C 379.466 48.461,380.803 44.405,380.864 44.034 C 380.883 43.918,380.955 43.728,381.023 43.611 C 381.153 43.391,382.049 40.722,382.142 40.277 C 382.172 40.136,382.250 39.879,382.317 39.704 C 382.562 39.061,383.540 35.964,383.621 35.570 C 383.668 35.347,383.946 34.451,384.240 33.580 C 385.590 29.582,390.840 11.042,390.670 10.875 C 390.632 10.839,389.176 11.183,387.434 11.640 M374.265 25.913 C 374.139 26.471,373.980 27.450,373.910 28.089 C 373.841 28.728,373.701 29.583,373.600 29.989 C 373.498 30.396,373.350 31.394,373.271 32.207 C 373.191 33.020,373.053 33.878,372.964 34.114 C 372.875 34.350,372.734 35.252,372.651 36.120 C 372.568 36.988,372.461 37.763,372.413 37.843 C 372.364 37.923,372.270 38.380,372.203 38.859 C 372.136 39.338,372.050 39.890,372.013 40.086 C 371.975 40.283,371.936 40.663,371.927 40.930 C 371.915 41.311,371.660 41.528,370.757 41.928 C 370.122 42.209,369.243 42.597,368.803 42.792 C 368.364 42.986,367.895 43.169,367.762 43.198 C 367.628 43.227,367.034 43.494,366.442 43.792 C 365.849 44.090,365.364 44.284,365.364 44.224 C 365.364 44.164,365.103 44.255,364.784 44.426 C 364.054 44.815,362.468 45.517,361.069 46.068 C 360.478 46.301,359.753 46.619,359.459 46.775 C 358.694 47.178,356.505 48.152,356.362 48.152 C 356.254 48.152,355.314 48.582,351.320 50.458 C 350.623 50.785,349.530 51.294,348.891 51.588 C 344.899 53.425,330.661 60.387,330.524 60.570 C 330.462 60.651,329.129 61.361,327.561 62.147 C 322.927 64.470,318.266 66.936,318.057 67.175 C 317.999 67.241,317.761 67.366,317.529 67.452 C 317.031 67.635,312.968 69.850,309.715 71.710 C 309.366 71.909,308.654 72.302,308.131 72.583 C 307.608 72.864,306.990 73.208,306.758 73.347 C 306.526 73.487,305.492 74.076,304.460 74.657 C 303.429 75.238,302.241 75.917,301.820 76.166 C 301.400 76.416,300.676 76.817,300.211 77.058 C 299.747 77.299,298.847 77.832,298.211 78.242 C 297.576 78.652,296.887 79.041,296.680 79.107 C 296.473 79.172,296.304 79.305,296.304 79.402 C 296.304 79.499,296.043 79.683,295.723 79.811 C 295.404 79.938,294.810 80.246,294.403 80.494 C 293.997 80.743,293.237 81.185,292.714 81.476 C 292.191 81.768,291.716 82.064,291.657 82.133 C 291.599 82.203,291.124 82.486,290.601 82.763 C 290.079 83.040,289.034 83.665,288.279 84.153 C 287.524 84.641,286.441 85.317,285.873 85.656 C 285.305 85.995,284.545 86.464,284.184 86.697 C 283.822 86.931,283.205 87.311,282.812 87.542 C 282.418 87.773,281.625 88.271,281.048 88.648 C 280.472 89.026,279.929 89.335,279.843 89.335 C 279.756 89.335,279.521 89.516,279.320 89.738 C 279.119 89.960,278.725 90.199,278.443 90.270 C 278.161 90.341,277.930 90.492,277.930 90.606 C 277.930 90.720,277.834 90.813,277.716 90.813 C 277.530 90.813,275.267 92.207,274.974 92.502 C 274.916 92.560,274.678 92.722,274.446 92.861 C 272.730 93.889,271.212 94.846,270.855 95.124 C 270.319 95.542,263.548 100.070,262.618 100.634 C 261.923 101.054,261.601 101.281,259.843 102.587 C 259.335 102.965,258.873 103.273,258.816 103.273 C 258.733 103.273,256.800 104.621,255.861 105.334 C 255.744 105.422,255.008 105.921,254.225 106.443 C 253.441 106.965,252.800 107.463,252.799 107.550 C 252.799 107.637,252.664 107.709,252.499 107.709 C 252.335 107.709,252.168 107.780,252.130 107.867 C 252.091 107.954,251.679 108.283,251.214 108.598 C 248.738 110.278,247.265 111.362,245.607 112.724 C 245.289 112.986,244.970 113.200,244.897 113.200 C 244.782 113.200,239.025 117.504,236.001 119.852 C 235.402 120.317,234.542 120.978,234.088 121.323 C 233.634 121.667,233.090 122.121,232.879 122.332 C 232.668 122.543,232.146 122.940,231.718 123.214 C 231.290 123.489,230.629 123.985,230.248 124.317 C 229.868 124.649,229.312 125.111,229.013 125.343 C 228.715 125.576,228.241 125.956,227.961 126.188 C 227.680 126.420,227.205 126.800,226.905 127.033 C 226.604 127.265,226.135 127.645,225.862 127.878 C 225.589 128.110,225.054 128.537,224.674 128.828 C 223.357 129.833,218.900 133.524,218.585 133.870 C 218.411 134.062,217.674 134.683,216.948 135.250 C 216.222 135.818,215.628 136.342,215.628 136.416 C 215.628 136.490,215.367 136.710,215.048 136.904 C 214.728 137.098,213.880 137.808,213.162 138.481 C 212.444 139.154,211.578 139.918,211.238 140.179 C 210.898 140.441,210.107 141.131,209.481 141.714 C 208.855 142.297,207.914 143.144,207.392 143.595 C 205.672 145.081,202.659 147.857,198.551 151.742 C 195.926 154.225,185.673 164.472,183.105 167.180 C 179.904 170.554,175.330 175.549,174.664 176.395 C 174.415 176.712,173.955 177.245,173.642 177.579 C 173.329 177.914,172.835 178.464,172.545 178.801 C 172.254 179.138,171.352 180.180,170.539 181.116 C 169.725 182.052,168.870 183.048,168.637 183.331 C 166.931 185.401,166.287 186.189,166.103 186.434 C 165.987 186.588,165.691 186.924,165.445 187.180 C 165.199 187.436,164.408 188.405,163.688 189.335 C 162.967 190.264,162.264 191.167,162.125 191.341 C 161.986 191.515,161.589 192.033,161.242 192.491 C 160.896 192.949,160.351 193.612,160.032 193.963 C 159.712 194.315,159.451 194.682,159.451 194.779 C 159.451 194.875,159.166 195.258,158.818 195.629 C 158.470 196.000,158.185 196.372,158.185 196.454 C 158.184 196.537,158.008 196.774,157.793 196.982 C 157.457 197.307,154.252 201.625,153.643 202.573 C 153.527 202.754,153.028 203.433,152.534 204.082 C 152.041 204.731,151.637 205.353,151.637 205.464 C 151.637 205.576,151.565 205.699,151.478 205.737 C 151.277 205.827,150.158 207.319,150.158 207.498 C 150.158 207.572,150.021 207.770,149.854 207.938 C 149.484 208.308,144.879 215.131,144.879 215.309 C 144.879 215.378,144.778 215.550,144.655 215.690 C 144.302 216.094,142.005 219.712,141.598 220.506 C 141.395 220.901,141.165 221.272,141.086 221.331 C 140.893 221.473,138.120 226.105,138.120 226.286 C 138.120 226.364,137.849 226.826,137.517 227.311 C 137.186 227.797,136.598 228.787,136.212 229.511 C 135.329 231.164,135.228 231.072,135.772 229.111 C 136.009 228.258,136.252 227.323,136.312 227.033 C 136.373 226.742,136.759 225.317,137.169 223.865 C 137.580 222.413,138.257 219.942,138.675 218.374 C 139.092 216.806,139.666 214.667,139.950 213.622 C 140.234 212.577,140.697 210.866,140.978 209.820 C 141.260 208.775,141.786 206.827,142.146 205.491 C 142.507 204.155,142.836 202.920,142.878 202.746 C 143.564 199.888,144.007 198.804,145.432 196.498 C 145.941 195.675,146.357 194.933,146.357 194.849 C 146.357 194.766,146.723 194.156,147.171 193.494 C 147.619 192.833,148.154 191.963,148.360 191.563 C 148.566 191.162,148.865 190.704,149.024 190.544 C 149.183 190.385,149.314 190.127,149.314 189.971 C 149.314 189.815,149.385 189.655,149.472 189.616 C 149.559 189.578,151.054 187.408,152.794 184.794 C 154.534 182.181,156.015 179.995,156.084 179.937 C 156.154 179.879,156.678 179.158,157.250 178.336 C 159.580 174.983,160.510 173.690,160.817 173.372 C 160.995 173.188,161.140 172.948,161.140 172.838 C 161.140 172.728,161.307 172.487,161.510 172.301 C 161.713 172.115,162.084 171.689,162.335 171.356 C 165.347 167.345,167.235 164.889,167.832 164.209 C 168.086 163.920,168.560 163.325,168.887 162.887 C 169.213 162.449,169.530 162.043,169.591 161.985 C 169.652 161.927,170.204 161.262,170.817 160.507 C 171.431 159.752,172.284 158.716,172.714 158.205 C 173.144 157.694,173.579 157.135,173.680 156.962 C 173.782 156.789,174.287 156.209,174.801 155.673 C 175.315 155.137,175.874 154.442,176.041 154.129 C 176.209 153.815,176.468 153.482,176.616 153.390 C 176.765 153.297,177.406 152.605,178.042 151.853 C 178.677 151.101,179.298 150.376,179.421 150.242 C 179.543 150.108,180.066 149.502,180.582 148.894 C 181.098 148.287,181.853 147.434,182.260 147.000 C 182.666 146.566,183.463 145.697,184.030 145.069 C 188.314 140.328,192.512 135.967,198.850 129.673 C 206.251 122.322,207.299 121.304,209.728 119.113 C 210.694 118.242,211.950 117.101,212.521 116.579 C 213.948 115.271,213.658 115.526,217.529 112.162 C 219.446 110.496,221.109 109.022,221.225 108.887 C 221.341 108.751,221.638 108.501,221.885 108.331 C 222.320 108.032,224.134 106.487,225.373 105.361 C 225.707 105.057,226.226 104.629,226.527 104.411 C 226.828 104.192,227.341 103.775,227.666 103.485 C 227.992 103.194,228.526 102.767,228.853 102.534 C 229.181 102.302,230.021 101.631,230.722 101.044 C 231.423 100.457,233.089 99.128,234.424 98.091 C 235.760 97.055,237.091 95.997,237.381 95.741 C 237.672 95.484,238.306 95.007,238.791 94.681 C 239.601 94.134,240.008 93.821,241.897 92.284 C 242.259 91.989,243.098 91.382,243.762 90.934 C 244.425 90.487,245.182 89.921,245.444 89.677 C 245.705 89.433,246.446 88.879,247.089 88.446 C 248.532 87.474,253.838 83.712,254.292 83.340 C 254.475 83.190,254.927 82.888,255.295 82.671 C 255.664 82.453,255.966 82.200,255.966 82.109 C 255.966 82.018,256.109 81.943,256.283 81.943 C 256.457 81.943,256.600 81.870,256.600 81.782 C 256.600 81.693,256.786 81.527,257.013 81.412 C 257.241 81.298,259.114 80.063,261.175 78.669 C 263.237 77.276,265.023 76.096,265.144 76.048 C 265.265 76.000,266.030 75.513,266.843 74.966 C 269.173 73.398,272.197 71.495,275.713 69.384 C 276.990 68.617,278.639 67.613,279.377 67.152 C 280.115 66.692,280.804 66.315,280.908 66.315 C 281.013 66.315,281.098 66.220,281.098 66.103 C 281.098 65.987,281.192 65.892,281.307 65.892 C 281.490 65.892,284.929 63.943,287.181 62.562 C 287.610 62.299,288.191 61.987,288.471 61.868 C 288.751 61.750,289.844 61.152,290.900 60.540 C 291.956 59.928,293.437 59.108,294.192 58.718 C 294.947 58.327,295.612 57.952,295.671 57.884 C 295.791 57.743,296.638 57.308,306.547 52.301 C 310.496 50.306,314.963 48.092,316.473 47.382 C 321.710 44.920,322.176 44.703,322.281 44.673 C 322.339 44.657,322.838 44.435,323.390 44.180 C 325.049 43.414,326.284 42.872,326.370 42.872 C 326.415 42.872,327.178 42.542,328.064 42.137 C 328.951 41.733,329.724 41.403,329.782 41.403 C 329.841 41.402,330.196 41.239,330.572 41.040 C 330.949 40.841,331.388 40.655,331.548 40.628 C 331.709 40.601,331.941 40.477,332.066 40.353 C 332.190 40.228,332.412 40.127,332.560 40.127 C 332.707 40.127,333.347 39.889,333.982 39.599 C 334.617 39.308,335.183 39.071,335.240 39.071 C 335.297 39.071,336.064 38.738,336.944 38.332 C 337.824 37.925,338.626 37.592,338.726 37.592 C 338.825 37.592,340.702 36.872,342.896 35.991 C 348.022 33.933,347.122 34.280,351.848 32.530 C 352.835 32.165,353.928 31.740,354.277 31.587 C 354.625 31.433,355.718 31.046,356.705 30.726 C 357.693 30.406,358.619 30.050,358.765 29.935 C 358.910 29.821,359.029 29.784,359.029 29.854 C 359.029 29.924,359.908 29.664,360.982 29.276 C 362.056 28.887,364.599 28.022,366.631 27.353 C 368.664 26.683,371.230 25.834,372.334 25.466 C 374.698 24.676,374.551 24.641,374.265 25.913 M135.047 162.038 C 133.438 163.577,131.628 165.312,131.024 165.892 C 130.421 166.473,128.373 168.421,126.474 170.221 C 124.574 172.020,122.022 174.458,120.803 175.637 C 119.583 176.816,117.546 178.765,116.276 179.968 C 115.006 181.170,113.378 182.724,112.658 183.421 C 111.939 184.118,109.846 186.114,108.008 187.856 C 106.169 189.599,103.622 192.039,102.347 193.280 L 100.028 195.536 96.952 196.512 C 95.260 197.049,93.590 197.600,93.242 197.736 C 92.893 197.872,92.486 198.002,92.336 198.024 C 92.186 198.046,91.378 198.294,90.541 198.575 C 89.703 198.855,87.735 199.492,86.167 199.989 C 84.599 200.486,82.793 201.064,82.154 201.273 C 81.515 201.482,78.997 202.284,76.558 203.056 C 74.118 203.827,71.837 204.570,71.489 204.706 C 71.140 204.842,70.742 204.970,70.604 204.990 C 70.466 205.011,69.611 205.271,68.703 205.569 C 67.134 206.084,65.578 206.587,58.817 208.764 C 54.692 210.092,54.690 210.079,58.689 207.648 C 59.780 206.984,60.921 206.276,61.224 206.075 C 61.526 205.873,61.964 205.622,62.196 205.517 C 62.429 205.412,63.115 204.983,63.722 204.564 C 64.329 204.144,64.916 203.801,65.025 203.801 C 65.134 203.801,65.255 203.730,65.294 203.643 C 65.333 203.556,65.737 203.295,66.194 203.062 C 66.650 202.830,67.127 202.545,67.253 202.429 C 67.380 202.313,67.815 202.035,68.219 201.811 C 68.624 201.587,69.002 201.350,69.060 201.283 C 69.118 201.216,69.593 200.931,70.116 200.649 C 70.639 200.368,71.114 200.082,71.172 200.016 C 71.230 199.949,71.563 199.742,71.911 199.555 C 72.260 199.369,73.590 198.573,74.868 197.788 C 76.146 197.002,77.988 195.871,78.963 195.276 C 79.937 194.680,80.982 194.027,81.286 193.826 C 81.589 193.624,82.027 193.373,82.260 193.268 C 82.492 193.163,83.179 192.734,83.786 192.314 C 84.393 191.895,84.979 191.552,85.088 191.552 C 85.197 191.552,85.319 191.481,85.357 191.394 C 85.396 191.307,85.801 191.045,86.257 190.813 C 86.713 190.581,87.190 190.296,87.317 190.180 C 87.444 190.063,87.878 189.785,88.283 189.562 C 88.687 189.338,89.065 189.101,89.124 189.034 C 89.182 188.967,89.657 188.682,90.180 188.400 C 90.702 188.118,91.177 187.833,91.236 187.767 C 91.294 187.700,91.626 187.493,91.975 187.306 C 92.323 187.119,93.654 186.324,94.931 185.538 C 96.209 184.753,98.052 183.622,99.026 183.026 C 100.000 182.431,101.046 181.778,101.349 181.577 C 101.653 181.375,102.091 181.124,102.323 181.019 C 102.555 180.913,103.242 180.484,103.849 180.065 C 104.456 179.646,105.050 179.303,105.169 179.303 C 105.288 179.303,105.385 179.226,105.385 179.133 C 105.385 179.039,105.766 178.794,106.231 178.589 C 106.695 178.384,107.196 178.104,107.343 177.968 C 107.490 177.831,107.942 177.536,108.346 177.313 C 108.750 177.089,109.129 176.851,109.187 176.785 C 109.245 176.718,109.720 176.433,110.243 176.151 C 110.766 175.869,111.241 175.584,111.299 175.517 C 111.357 175.451,111.690 175.243,112.038 175.057 C 112.387 174.870,113.717 174.075,114.995 173.289 C 116.272 172.503,118.115 171.373,119.089 170.777 C 120.064 170.181,121.109 169.529,121.413 169.327 C 121.716 169.126,122.154 168.875,122.386 168.770 C 122.619 168.664,123.288 168.259,123.873 167.869 C 125.209 166.979,125.560 166.764,126.610 166.197 C 127.075 165.946,127.503 165.680,127.561 165.605 C 127.619 165.531,127.999 165.287,128.405 165.063 C 128.812 164.840,129.192 164.602,129.250 164.535 C 129.308 164.469,129.784 164.183,130.306 163.902 C 130.829 163.620,131.304 163.335,131.362 163.268 C 131.421 163.201,131.753 162.994,132.102 162.808 C 133.122 162.261,137.363 159.653,137.582 159.437 C 137.692 159.329,137.825 159.240,137.877 159.240 C 137.930 159.240,136.656 160.499,135.047 162.038 M245.827 255.937 C 245.480 256.501,245.195 257.028,245.195 257.107 C 245.195 257.186,244.863 257.744,244.456 258.348 C 244.050 258.951,243.717 259.513,243.717 259.595 C 243.717 259.678,243.242 260.487,242.661 261.393 C 242.080 262.300,241.605 263.116,241.605 263.208 C 241.605 263.300,241.272 263.869,240.866 264.472 C 240.459 265.076,240.127 265.637,240.127 265.720 C 240.127 265.802,239.652 266.611,239.071 267.518 C 238.490 268.424,238.015 269.241,238.015 269.333 C 238.015 269.424,237.682 269.993,237.276 270.597 C 236.869 271.201,236.536 271.762,236.536 271.844 C 236.536 271.927,236.061 272.736,235.480 273.642 C 234.900 274.549,234.425 275.365,234.425 275.457 C 234.425 275.549,234.092 276.118,233.685 276.721 C 233.279 277.325,232.946 277.887,232.946 277.969 C 232.946 278.051,232.471 278.861,231.890 279.767 C 231.309 280.673,230.834 281.490,230.834 281.582 C 230.834 281.673,230.502 282.242,230.095 282.846 C 229.688 283.450,229.356 284.011,229.356 284.094 C 229.356 284.176,228.881 284.985,228.300 285.892 C 227.719 286.798,227.244 287.615,227.244 287.706 C 227.244 287.798,226.911 288.367,226.505 288.971 C 226.098 289.574,225.766 290.136,225.766 290.218 C 225.766 290.301,225.290 291.110,224.710 292.016 C 224.129 292.923,223.654 293.739,223.654 293.831 C 223.654 293.923,223.321 294.492,222.914 295.095 C 222.508 295.699,222.175 296.260,222.175 296.343 C 222.175 296.425,221.700 297.234,221.119 298.141 C 220.539 299.047,220.063 299.864,220.063 299.956 C 220.063 300.047,219.731 300.616,219.324 301.220 C 218.918 301.824,218.585 302.385,218.585 302.467 C 218.585 302.550,218.110 303.359,217.529 304.265 C 216.948 305.172,216.473 305.988,216.473 306.080 C 216.473 306.172,216.140 306.741,215.734 307.344 C 215.327 307.948,214.995 308.510,214.995 308.592 C 214.995 308.674,214.520 309.484,213.939 310.390 C 213.358 311.296,212.883 312.113,212.883 312.205 C 212.883 312.296,212.550 312.865,212.144 313.469 C 211.737 314.073,211.404 314.634,211.404 314.717 C 211.404 314.799,210.929 315.608,210.348 316.515 C 209.768 317.421,209.293 318.238,209.293 318.329 C 209.293 318.421,208.960 318.990,208.553 319.594 C 208.147 320.197,207.814 320.759,207.814 320.841 C 207.814 320.924,207.339 321.733,206.758 322.639 C 206.177 323.546,205.702 324.362,205.702 324.454 C 205.702 324.546,205.370 325.115,204.963 325.718 C 204.556 326.322,204.224 326.883,204.224 326.966 C 204.224 327.048,203.749 327.857,203.168 328.764 C 202.587 329.670,202.112 330.490,202.112 330.585 C 202.112 330.680,201.827 331.173,201.478 331.679 C 201.130 332.185,200.845 332.665,200.845 332.745 C 200.845 332.825,200.322 333.715,199.683 334.723 C 199.044 335.731,198.522 336.626,198.522 336.713 C 198.522 336.799,198.189 337.364,197.782 337.967 C 197.376 338.571,197.043 339.133,197.043 339.215 C 197.043 339.297,196.568 340.107,195.987 341.013 C 195.407 341.919,194.931 342.736,194.931 342.828 C 194.931 342.919,194.599 343.488,194.192 344.092 C 193.786 344.696,193.453 345.257,193.453 345.340 C 193.453 345.422,192.978 346.231,192.397 347.138 C 191.816 348.044,191.341 348.861,191.341 348.952 C 191.341 349.044,191.008 349.613,190.602 350.217 C 190.195 350.820,189.863 351.384,189.863 351.469 C 189.863 351.554,189.448 352.268,188.942 353.056 C 188.436 353.843,187.853 354.848,187.647 355.287 C 186.999 356.672,187.087 356.009,187.853 353.729 C 188.259 352.520,188.586 351.531,188.580 351.531 C 188.574 351.531,188.614 351.389,188.671 351.214 C 188.727 351.040,189.262 349.377,189.860 347.518 C 190.457 345.660,191.376 342.831,191.902 341.232 C 192.428 339.633,192.882 338.207,192.912 338.064 C 192.942 337.921,193.018 337.661,193.082 337.487 C 193.145 337.313,193.673 335.697,194.256 333.897 C 194.838 332.096,195.760 329.267,196.304 327.610 C 196.848 325.953,197.317 324.480,197.347 324.337 C 197.377 324.193,197.454 323.933,197.517 323.759 C 197.580 323.585,198.108 321.969,198.691 320.169 C 199.273 318.369,200.195 315.540,200.739 313.883 C 201.283 312.225,201.752 310.752,201.782 310.609 C 201.812 310.466,201.892 310.206,201.960 310.032 C 202.027 309.857,202.851 307.339,203.791 304.435 L 205.499 299.155 206.790 297.782 C 207.501 297.027,208.616 295.830,209.268 295.121 C 209.920 294.412,210.929 293.322,211.510 292.699 C 212.091 292.077,213.222 290.851,214.025 289.976 C 217.874 285.777,220.012 283.455,221.436 281.928 C 222.017 281.306,223.149 280.080,223.951 279.205 C 227.800 275.006,229.938 272.684,231.362 271.158 C 231.943 270.535,233.075 269.309,233.877 268.434 C 237.632 264.338,238.796 263.075,242.468 259.116 C 243.698 257.790,245.064 256.301,245.502 255.808 C 246.533 254.648,246.603 254.676,245.827 255.937 " stroke="none" fill="#3bd6c6" fill-rule="evenodd"></path><path id="path4" d="" stroke="none" fill="#40d4c4" fill-rule="evenodd"></path></g></svg>