<svg id="svg" xmlns="http://www.w3.org/2000/svg" xmlns:xlink="http://www.w3.org/1999/xlink" width="400" height="392.39704329461455" viewBox="0, 0, 400,392.39704329461455"><g id="svgg"><path id="path0" d="M384.900 12.269 C 305.638 33.555,228.225 76.491,180.525 125.623 L 177.629 128.606 100.483 173.728 C 17.417 222.312,22.413 219.341,23.465 219.524 C 24.327 219.673,111.472 230.347,112.653 230.447 L 113.478 230.517 117.458 224.621 C 119.647 221.378,121.482 218.679,121.538 218.624 C 121.593 218.569,121.160 219.940,120.577 221.670 C 117.288 231.428,114.384 242.739,112.455 253.305 L 111.688 257.507 113.242 259.113 C 114.096 259.996,115.027 260.983,115.309 261.307 L 115.823 261.896 71.167 306.552 L 26.511 351.208 27.875 352.584 C 28.624 353.341,29.336 353.960,29.456 353.960 C 29.575 353.960,49.725 333.908,74.233 309.400 L 118.793 264.840 121.066 267.106 L 123.340 269.373 72.335 320.378 C 44.283 348.431,21.331 371.481,21.331 371.601 C 21.331 371.720,21.926 372.408,22.653 373.129 L 23.976 374.440 75.080 323.336 L 126.185 272.231 128.669 274.709 L 131.154 277.188 84.265 324.077 L 37.375 370.967 38.704 372.284 C 39.435 373.008,40.125 373.601,40.238 373.601 C 40.351 373.601,61.494 352.550,87.223 326.822 L 134.002 280.043 135.566 281.752 L 137.129 283.462 97.869 322.723 L 58.608 361.983 60.034 363.409 L 61.459 364.834 100.739 325.555 L 140.018 286.276 142.821 289.072 C 144.362 290.611,145.780 291.869,145.970 291.869 C 146.490 291.869,153.596 289.733,157.447 288.419 C 167.060 285.138,176.400 281.270,187.422 276.005 C 190.552 274.510,193.023 273.370,192.913 273.473 C 192.616 273.750,182.403 280.659,175.238 285.431 C 171.618 287.841,168.955 289.750,168.955 289.933 C 168.955 290.661,179.320 379.250,179.473 379.831 L 179.640 380.465 179.984 379.937 C 180.173 379.646,202.999 341.173,230.708 294.441 L 281.089 209.473 285.706 204.684 C 334.551 154.014,368.705 91.868,389.323 16.142 C 390.085 13.346,390.707 10.994,390.707 10.915 C 390.707 10.704,390.847 10.672,384.900 12.269 M374.321 25.290 C 374.274 25.494,373.712 29.034,373.072 33.157 C 372.432 37.281,371.863 40.855,371.808 41.099 C 371.731 41.440,371.081 41.803,369.011 42.662 C 333.341 57.465,291.908 80.269,258.184 103.659 C 204.170 141.122,163.925 182.263,137.807 226.716 C 136.442 229.039,135.392 230.655,135.472 230.306 C 136.086 227.658,143.894 199.207,144.137 198.738 C 150.120 187.168,167.611 163.432,182.030 147.317 C 231.494 92.033,294.501 51.240,368.004 26.909 C 374.550 24.743,374.441 24.771,374.321 25.290 M137.375 159.844 C 137.146 160.061,128.621 168.187,118.430 177.902 L 99.901 195.566 77.801 202.649 C 65.646 206.545,55.669 209.699,55.629 209.659 C 55.561 209.592,137.475 159.485,137.692 159.462 C 137.747 159.456,137.604 159.628,137.375 159.844 M243.744 259.504 C 242.262 262.030,228.996 284.673,214.262 309.820 C 199.529 334.968,187.394 355.634,187.296 355.744 C 187.198 355.854,187.354 355.236,187.643 354.371 C 187.931 353.506,192.053 340.763,196.802 326.053 L 205.437 299.307 225.894 277.109 C 237.146 264.900,246.371 254.910,246.395 254.910 C 246.419 254.910,245.226 256.977,243.744 259.504 " stroke="none" fill="#ffffff" fill-rule="evenodd"></path><path id="path1" d="" stroke="none" fill="#100fcfc" fill-rule="evenodd"></path><path id="path2" d="" stroke="none" fill="#100fcfc" fill-rule="evenodd"></path><path id="path3" d="" stroke="none" fill="#100fcfc" fill-rule="evenodd"></path><path id="path4" d="" stroke="none" fill="#100fcfc" fill-rule="evenodd"></path></g></svg>