<svg id="svg" xmlns="http://www.w3.org/2000/svg" xmlns:xlink="http://www.w3.org/1999/xlink" width="400" height="858.1538461538462" viewBox="0, 0, 400,858.1538461538462"><g id="svgg"><path id="path0" d="" stroke="none" fill="#fcfcfc" fill-rule="evenodd"></path><path id="path1" d="M209.897 20.841 C 209.165 22.032,205.002 29.189,204.334 30.404 C 204.016 30.982,203.177 32.468,202.469 33.706 C 200.292 37.512,199.199 39.460,198.196 41.324 C 196.996 43.555,194.475 48.307,194.006 49.224 C 193.813 49.602,193.313 50.555,192.896 51.342 C 192.478 52.129,189.937 57.200,187.248 62.612 C 184.559 68.023,182.033 73.095,181.635 73.882 C 181.237 74.669,180.801 75.555,180.667 75.850 C 180.533 76.145,179.901 77.513,179.262 78.891 C 178.623 80.268,177.617 82.442,177.027 83.721 C 176.437 85.000,175.578 86.852,175.118 87.835 C 174.658 88.819,173.609 91.154,172.788 93.023 C 171.966 94.893,170.829 97.429,170.262 98.659 C 169.695 99.890,169.231 100.965,169.231 101.049 C 169.231 101.133,168.748 102.246,168.157 103.521 C 167.567 104.797,167.084 105.931,167.084 106.042 C 167.084 106.153,166.601 107.298,166.011 108.587 C 165.420 109.876,164.937 111.084,164.937 111.272 C 164.937 111.460,164.467 112.624,163.893 113.857 C 163.318 115.091,162.335 117.388,161.709 118.962 C 161.083 120.537,160.104 122.932,159.534 124.286 C 158.964 125.640,158.497 126.938,158.497 127.170 C 158.497 127.403,158.157 128.297,157.742 129.157 C 157.327 130.017,156.708 131.536,156.367 132.534 C 156.026 133.531,155.304 135.474,154.761 136.852 C 153.843 139.182,152.409 143.029,151.361 145.975 C 151.116 146.664,150.277 148.998,149.496 151.163 C 147.023 158.017,145.572 162.218,145.279 163.376 C 145.123 163.993,144.599 165.603,144.114 166.954 C 142.921 170.279,139.355 181.566,137.404 188.193 C 136.795 190.259,135.901 193.241,135.416 194.820 C 134.932 196.398,134.388 198.410,134.207 199.292 C 134.027 200.173,133.480 202.263,132.991 203.936 C 130.470 212.563,123.853 240.361,123.105 245.474 C 122.949 246.537,122.411 249.419,121.908 251.878 C 120.211 260.192,116.631 282.294,116.635 284.439 C 116.636 285.129,116.227 288.591,115.727 292.131 C 115.227 295.672,114.674 300.742,114.498 303.399 C 114.322 306.055,113.932 311.047,113.631 314.490 C 112.651 325.705,112.343 333.700,112.351 347.738 L 112.358 361.538 111.244 365.653 C 108.891 374.343,106.735 382.481,104.514 391.055 C 103.928 393.318,103.012 396.780,102.480 398.748 C 101.947 400.716,101.316 403.211,101.078 404.293 C 100.840 405.376,100.306 407.469,99.892 408.945 C 99.177 411.490,98.368 414.558,95.926 423.971 C 93.240 434.324,92.185 438.321,91.392 441.145 C 90.923 442.818,90.440 444.669,90.319 445.259 C 90.107 446.291,89.368 449.093,86.967 457.961 C 86.354 460.224,85.853 462.317,85.854 462.612 C 85.855 462.907,85.375 464.670,84.788 466.530 C 84.201 468.389,83.721 470.208,83.721 470.571 C 83.721 470.934,83.250 472.874,82.675 474.882 C 82.099 476.890,81.151 480.385,80.567 482.648 C 79.984 484.911,78.909 489.016,78.179 491.771 C 77.448 494.526,76.389 498.551,75.824 500.716 C 74.564 505.544,72.896 511.944,71.533 517.174 C 70.969 519.338,70.024 522.961,69.433 525.224 C 67.937 530.946,66.408 536.809,65.093 541.860 C 64.479 544.222,63.438 548.166,62.780 550.626 C 61.582 555.104,60.342 559.837,58.303 567.710 C 57.704 570.022,56.738 573.633,56.156 575.733 C 55.575 577.833,55.098 579.797,55.098 580.097 C 55.098 580.397,54.683 581.956,54.176 583.562 C 53.669 585.167,53.121 587.228,52.959 588.142 C 52.796 589.056,52.256 591.252,51.759 593.023 C 51.262 594.794,50.353 598.175,49.739 600.537 C 49.125 602.898,48.056 606.881,47.364 609.387 C 45.797 615.059,45.886 615.191,49.417 612.433 C 50.992 611.203,52.815 609.794,53.469 609.302 C 56.795 606.800,61.048 603.412,61.399 602.986 C 61.617 602.721,61.920 602.504,62.071 602.504 C 62.222 602.504,63.010 601.933,63.821 601.234 C 64.632 600.536,65.456 599.850,65.653 599.710 C 65.850 599.570,67.460 598.335,69.231 596.964 C 71.002 595.594,72.612 594.356,72.809 594.213 C 73.005 594.070,73.810 593.415,74.597 592.757 C 75.385 592.099,77.196 590.684,78.623 589.612 C 80.049 588.541,81.216 587.541,81.216 587.392 C 81.216 587.242,81.409 587.120,81.644 587.120 C 81.879 587.120,82.513 586.697,83.052 586.180 C 83.592 585.664,84.343 585.060,84.722 584.839 C 85.732 584.250,91.632 579.533,92.274 578.801 C 92.577 578.457,93.000 578.175,93.215 578.175 C 93.429 578.175,94.068 577.692,94.633 577.102 C 95.199 576.512,95.815 576.029,96.002 576.029 C 96.190 576.029,96.522 575.811,96.741 575.544 C 97.085 575.123,100.378 572.521,104.274 569.589 C 107.825 566.916,111.843 563.662,112.093 563.256 C 112.250 563.000,112.553 562.791,112.765 562.791 C 112.977 562.791,113.815 562.219,114.626 561.521 C 115.437 560.822,116.261 560.132,116.458 559.988 C 116.807 559.732,121.394 556.177,124.152 554.025 C 124.908 553.435,126.988 551.830,128.774 550.460 C 130.560 549.089,132.021 547.841,132.021 547.687 C 132.021 547.532,132.233 547.406,132.491 547.406 C 132.750 547.406,133.424 546.923,133.989 546.333 C 134.555 545.742,135.221 545.259,135.470 545.259 C 135.718 545.259,136.050 545.049,136.208 544.791 C 136.365 544.533,137.835 543.285,139.474 542.018 C 141.113 540.751,143.077 539.231,143.837 538.640 C 144.598 538.050,146.557 536.538,148.192 535.281 C 149.826 534.023,151.292 532.880,151.450 532.739 C 151.609 532.599,151.262 530.246,150.681 527.512 C 148.918 519.227,147.758 513.303,147.876 513.186 C 147.937 513.124,149.426 515.919,151.185 519.396 C 152.944 522.872,154.747 526.260,155.193 526.924 C 155.638 527.588,156.234 528.645,156.517 529.272 C 156.800 529.899,157.603 531.377,158.301 532.558 C 159.000 533.739,159.916 535.349,160.338 536.136 C 160.760 536.923,161.484 538.065,161.948 538.674 C 162.411 539.283,162.791 539.904,162.791 540.053 C 162.791 540.203,163.274 541.041,163.864 541.916 C 164.454 542.791,164.937 543.597,164.937 543.707 C 164.937 543.817,166.829 546.726,169.141 550.171 C 174.338 557.914,174.126 557.600,175.811 560.050 L 177.203 562.075 181.625 562.075 L 186.047 562.075 186.047 634.347 L 186.047 706.619 185.224 706.619 C 184.175 706.619,183.542 705.986,183.542 704.937 C 183.542 704.282,183.342 704.111,182.558 704.099 C 179.874 704.057,172.195 703.435,171.646 703.215 C 170.835 702.891,170.835 701.978,171.646 701.932 C 172.063 701.908,171.974 701.801,171.377 701.610 C 170.886 701.452,165.947 701.308,160.403 701.288 L 150.323 701.252 149.312 702.095 C 147.996 703.191,145.660 703.675,140.656 703.888 L 136.590 704.062 135.598 705.251 C 134.663 706.373,134.447 706.450,131.802 706.619 C 129.259 706.781,128.957 706.881,128.557 707.686 C 127.874 709.062,127.038 709.481,124.976 709.481 C 123.339 709.481,123.077 709.576,123.077 710.171 C 123.077 711.273,121.401 712.343,119.674 712.343 C 118.288 712.343,118.140 712.432,117.951 713.377 C 117.773 714.267,117.501 714.469,115.993 714.831 C 114.550 715.177,114.154 715.452,113.740 716.391 C 113.327 717.328,112.990 717.563,111.845 717.710 C 110.620 717.868,110.439 718.015,110.343 718.930 C 110.217 720.131,109.694 720.559,108.342 720.567 C 107.572 720.571,107.360 720.760,107.269 721.520 C 107.148 722.532,106.670 722.911,105.098 723.241 C 104.347 723.399,104.114 723.657,104.114 724.331 C 104.114 725.002,103.814 725.340,102.862 725.737 C 101.906 726.137,101.610 726.471,101.610 727.152 C 101.610 728.306,101.167 728.553,100.027 728.033 C 98.802 727.475,98.859 726.547,100.148 726.060 C 100.824 725.805,101.234 725.368,101.311 724.819 C 101.388 724.277,101.847 723.778,102.586 723.435 C 103.221 723.140,103.745 722.641,103.749 722.327 C 103.759 721.562,104.898 720.572,105.768 720.572 C 106.251 720.572,106.578 720.211,106.813 719.418 C 107.089 718.490,107.410 718.205,108.457 717.961 C 109.504 717.717,109.723 717.523,109.578 716.967 C 109.299 715.903,110.127 715.206,111.667 715.206 C 112.909 715.206,113.103 715.078,113.573 713.953 C 113.860 713.265,114.305 712.700,114.561 712.699 C 115.908 712.693,117.710 711.907,117.710 711.325 C 117.710 710.392,118.433 709.840,119.660 709.834 C 121.367 709.826,122.319 709.463,122.552 708.729 C 122.961 707.438,123.787 706.977,125.696 706.971 C 127.805 706.965,128.036 706.848,128.867 705.367 C 129.434 704.356,129.610 704.288,131.908 704.202 C 135.012 704.087,135.957 703.865,135.957 703.254 C 135.957 702.158,138.451 701.523,143.685 701.286 C 147.915 701.094,148.906 700.943,149.508 700.398 C 150.789 699.239,159.735 698.421,162.031 699.253 C 165.106 700.369,168.164 699.704,168.152 697.922 C 168.145 696.892,167.790 696.392,166.860 696.103 C 166.313 695.932,166.035 695.466,165.872 694.444 C 165.668 693.172,165.538 693.023,164.619 693.023 C 163.447 693.023,162.913 692.516,162.736 691.234 C 162.632 690.487,162.376 690.310,161.181 690.161 C 159.862 689.996,159.735 689.883,159.571 688.730 C 159.417 687.653,159.241 687.461,158.318 687.357 C 156.897 687.196,156.351 686.696,156.350 685.555 C 156.350 684.689,156.218 684.607,154.664 684.506 C 152.695 684.379,152.057 683.957,152.057 682.783 C 152.057 682.020,151.900 681.932,150.527 681.932 C 148.712 681.932,147.269 681.066,147.515 680.124 C 147.723 679.328,147.124 679.070,145.068 679.070 C 142.978 679.070,141.682 678.449,141.682 677.447 C 141.682 676.522,140.617 676.211,137.433 676.202 C 134.997 676.196,133.600 675.567,133.710 674.525 C 133.829 673.392,133.542 673.374,115.385 673.352 C 97.634 673.331,96.387 673.401,96.060 674.433 C 95.779 675.318,92.978 676.208,90.469 676.208 C 89.007 676.208,88.265 676.375,87.939 676.778 C 86.290 678.818,85.891 679.070,84.303 679.070 C 82.257 679.070,81.574 679.343,81.574 680.161 C 81.574 681.129,80.188 681.932,78.518 681.932 C 77.208 681.932,76.998 682.055,76.540 683.095 C 76.188 683.897,75.751 684.289,75.134 684.358 C 73.032 684.593,72.630 684.801,72.630 685.652 C 72.630 686.688,72.055 687.198,70.706 687.357 C 69.890 687.453,69.595 687.736,69.275 688.730 C 68.937 689.783,68.674 690.010,67.621 690.161 C 66.617 690.304,66.344 690.518,66.245 691.234 C 66.060 692.571,65.486 693.066,64.255 692.949 C 63.242 692.853,63.139 692.943,63.036 694.007 C 62.913 695.290,62.176 695.536,61.012 694.685 C 60.121 694.033,60.543 693.023,61.706 693.023 C 62.335 693.023,62.612 692.829,62.612 692.387 C 62.612 691.431,63.591 690.225,64.472 690.096 C 65.007 690.018,65.345 689.623,65.547 688.842 C 65.792 687.892,66.035 687.682,66.999 687.589 C 67.955 687.497,68.177 687.310,68.268 686.520 C 68.409 685.302,68.925 684.883,70.464 684.734 C 71.513 684.633,71.738 684.444,71.993 683.453 C 72.224 682.556,72.485 682.290,73.132 682.290 C 75.243 682.290,76.120 681.878,76.447 680.733 C 76.750 679.674,76.903 679.588,78.993 679.307 C 80.528 679.100,81.216 678.851,81.216 678.502 C 81.216 677.353,82.589 676.565,84.590 676.565 C 86.563 676.565,87.657 675.987,87.657 674.942 C 87.657 674.070,88.956 673.703,92.050 673.703 C 94.982 673.703,95.092 673.672,96.298 672.501 C 97.509 671.325,97.619 671.294,101.598 671.036 C 106.757 670.702,107.236 670.490,107.549 668.401 C 107.812 666.647,106.999 665.474,105.520 665.474 C 105.053 665.474,104.747 665.063,104.482 664.079 L 104.106 662.684 101.626 662.435 C 99.166 662.187,99.145 662.176,99.036 661.057 C 98.927 659.937,98.909 659.927,96.565 659.750 C 94.042 659.558,92.872 658.934,93.137 657.920 C 93.322 657.216,92.385 657.081,84.794 656.719 C 79.487 656.467,78.954 656.324,79.229 655.229 C 79.436 654.404,79.382 654.383,77.109 654.383 C 74.995 654.383,74.077 654.782,75.224 655.203 C 77.233 655.939,72.500 656.823,66.324 656.865 C 62.079 656.894,60.823 657.150,60.823 657.985 C 60.823 659.014,59.415 659.749,57.434 659.755 C 55.512 659.761,54.506 660.154,54.877 660.754 C 55.285 661.414,54.084 662.179,52.245 662.432 C 50.721 662.641,50.446 662.797,50.442 663.450 C 50.434 664.594,50.028 665.038,48.866 665.173 C 48.037 665.270,47.737 665.552,47.406 666.547 C 47.106 667.447,46.745 667.834,46.124 667.923 C 44.931 668.094,44.427 668.582,44.297 669.691 C 44.209 670.439,43.939 670.686,43.005 670.876 C 41.359 671.210,41.497 670.815,41.172 676.118 C 41.157 676.364,40.762 676.565,40.294 676.565 C 38.744 676.565,38.617 677.148,38.721 683.768 L 38.819 689.982 41.682 690.178 C 44.864 690.396,46.154 690.911,46.154 691.962 C 46.154 692.805,46.891 692.742,37.917 692.670 C 27.259 692.583,23.614 692.896,23.614 693.895 C 23.614 695.140,22.899 695.527,20.590 695.533 C 18.223 695.539,17.406 695.848,17.694 696.630 C 18.006 697.475,17.324 698.120,15.869 698.356 C 14.748 698.537,14.467 698.745,14.366 699.468 C 14.189 700.746,13.653 701.252,12.479 701.252 C 11.583 701.252,11.449 701.386,11.449 702.282 C 11.449 703.152,10.539 704.491,10.142 704.204 C 9.433 703.692,8.587 704.234,8.587 705.199 C 8.587 706.289,7.531 707.093,6.576 706.730 C 6.003 706.513,5.631 707.549,5.394 710.018 C 5.207 711.969,5.106 712.176,4.293 712.288 C 2.760 712.500,2.505 712.984,2.496 715.697 C 2.488 718.026,2.086 720.752,1.693 721.146 C 1.334 721.504,0.389 720.817,0.249 720.095 C 0.165 719.669,0.076 722.283,0.049 725.904 C 0.000 732.473,0.002 732.487,0.700 731.682 L 1.399 730.875 1.616 731.896 C 1.735 732.457,1.968 733.172,2.135 733.484 C 2.302 733.797,2.482 735.407,2.536 737.062 C 2.654 740.713,2.752 741.049,3.620 740.774 C 4.244 740.576,4.503 741.067,4.336 742.129 C 4.312 742.276,4.506 742.397,4.767 742.397 C 5.027 742.397,5.390 742.996,5.572 743.727 C 5.839 744.797,6.127 745.121,7.047 745.383 C 8.022 745.661,8.207 745.897,8.300 746.969 C 8.369 747.781,8.662 748.368,9.123 748.622 C 10.048 749.131,10.406 749.629,10.217 750.145 C 10.134 750.373,10.578 750.749,11.205 750.980 C 13.063 751.667,13.420 751.942,13.353 752.638 C 13.273 753.470,13.834 753.834,15.209 753.841 C 16.372 753.847,17.307 754.871,16.964 755.764 C 16.819 756.144,17.174 756.347,18.312 756.535 C 21.105 756.998,21.867 757.810,20.215 758.562 C 18.772 759.220,19.154 759.471,22.001 759.738 C 25.368 760.053,25.965 761.360,22.743 761.360 C 21.677 761.360,21.608 761.552,22.394 762.338 C 22.846 762.789,23.022 762.811,23.248 762.445 C 23.623 761.839,24.329 762.294,24.329 763.141 C 24.329 763.602,24.687 763.885,25.492 764.059 C 27.041 764.394,28.623 765.548,28.623 766.343 C 28.623 766.850,29.016 767.031,30.499 767.207 C 31.531 767.329,32.430 767.593,32.496 767.793 C 32.563 767.993,32.843 768.157,33.118 768.157 C 33.393 768.157,33.721 768.568,33.847 769.069 C 34.027 769.789,34.273 769.963,35.016 769.896 C 36.313 769.780,38.680 770.913,38.900 771.756 C 39.014 772.194,39.391 772.451,39.918 772.451 C 40.733 772.451,42.576 773.118,42.934 773.543 C 43.288 773.963,44.365 774.210,44.365 773.871 C 44.365 773.680,44.526 773.524,44.723 773.524 C 44.919 773.524,45.081 773.766,45.081 774.061 C 45.081 774.356,45.315 774.597,45.603 774.597 C 46.381 774.597,47.879 772.823,47.695 772.119 C 47.528 771.480,48.509 770.393,48.900 770.784 C 49.111 770.995,49.159 771.416,49.311 774.387 C 49.369 775.518,49.480 775.626,50.805 775.850 C 52.197 776.085,52.237 776.132,52.278 777.581 C 52.363 780.559,52.656 781.199,54.028 781.397 C 55.210 781.567,55.275 781.649,55.236 782.917 C 55.201 784.079,55.302 784.258,55.998 784.258 C 57.214 784.258,57.489 784.756,58.197 788.253 C 58.330 788.906,58.690 789.282,59.337 789.445 C 60.651 789.774,61.181 790.290,61.181 791.240 C 61.181 792.069,61.785 792.487,62.983 792.487 C 63.465 792.487,63.718 792.837,63.888 793.739 C 64.017 794.428,64.346 795.011,64.619 795.036 C 66.035 795.163,66.547 795.577,66.547 796.594 C 66.547 797.242,66.297 797.494,65.474 797.674 C 64.354 797.920,63.885 799.284,64.920 799.284 C 65.205 799.284,65.584 799.544,65.761 799.861 C 66.022 800.327,66.126 800.229,66.301 799.353 C 66.567 798.022,67.784 797.505,68.638 798.360 C 69.297 799.018,68.959 799.860,67.776 800.513 C 67.395 800.723,67.015 800.936,66.931 800.988 C 66.847 801.039,67.129 801.407,67.557 801.807 C 67.986 802.206,68.336 802.687,68.336 802.876 C 68.336 803.468,69.729 804.643,70.211 804.458 C 70.476 804.357,70.959 804.815,71.349 805.540 C 71.722 806.232,72.226 806.798,72.469 806.798 C 73.005 806.798,73.343 807.599,73.351 808.884 C 73.355 809.571,73.444 809.700,73.670 809.343 C 73.921 808.947,74.064 808.997,74.386 809.598 C 74.622 810.040,75.002 810.267,75.309 810.149 C 75.918 809.915,76.581 810.525,77.172 811.860 C 77.423 812.430,77.851 812.787,78.241 812.755 C 78.676 812.719,78.856 812.908,78.786 813.327 C 78.714 813.757,78.915 813.953,79.426 813.953 C 80.581 813.953,82.927 815.291,83.182 816.094 C 83.321 816.531,83.723 816.816,84.202 816.816 C 85.197 816.816,86.583 817.765,86.583 818.446 C 86.583 819.321,87.998 819.033,88.437 818.068 C 88.969 816.900,90.418 816.846,90.846 817.979 C 91.013 818.421,91.074 818.913,90.980 819.072 C 90.586 819.738,91.266 821.109,91.990 821.109 C 92.432 821.109,92.808 821.399,92.920 821.825 C 93.023 822.218,93.239 822.540,93.402 822.540 C 93.564 822.540,93.832 823.225,93.998 824.061 C 94.284 825.504,94.357 825.576,95.437 825.466 C 96.635 825.345,97.318 826.454,96.830 827.727 C 96.684 828.108,96.860 828.265,97.435 828.265 C 98.519 828.265,99.106 828.911,99.106 830.106 C 99.106 830.823,99.369 831.214,100.085 831.557 C 100.624 831.816,101.125 832.339,101.198 832.719 C 101.271 833.100,101.716 833.714,102.186 834.084 C 102.668 834.463,103.041 835.136,103.041 835.625 C 103.041 836.290,103.232 836.494,103.856 836.494 C 104.980 836.494,106.189 837.413,106.326 838.372 C 106.393 838.842,106.734 839.216,107.156 839.283 C 108.864 839.553,109.839 840.167,109.839 840.971 C 109.839 841.859,110.445 842.218,111.943 842.218 C 113.117 842.218,113.775 842.806,113.775 843.854 C 113.775 844.480,114.044 844.674,115.159 844.853 C 116.748 845.107,117.518 845.841,117.254 846.850 C 117.090 847.478,117.321 847.574,119.537 847.792 C 121.971 848.032,122.269 848.238,122.027 849.520 C 121.916 850.107,122.869 850.436,124.697 850.442 C 126.788 850.448,128.222 851.243,127.911 852.222 C 127.656 853.028,128.553 853.298,131.506 853.305 C 133.803 853.310,134.745 853.752,134.947 854.919 C 135.083 855.708,136.936 856.068,141.211 856.136 C 144.699 856.192,146.399 857.262,144.633 858.290 C 144.201 858.542,148.745 858.658,159.326 858.665 C 174.605 858.676,174.645 858.674,174.413 857.943 C 174.009 856.671,174.834 856.175,177.414 856.136 C 181.322 856.078,183.735 855.689,183.617 855.137 C 183.366 853.972,184.647 853.309,187.152 853.309 C 190.091 853.309,191.413 852.872,191.413 851.900 C 191.413 850.936,192.453 850.448,194.520 850.442 C 196.066 850.437,197.358 850.062,197.103 849.692 C 196.679 849.076,197.547 847.942,198.446 847.938 C 200.285 847.929,201.073 847.556,201.073 846.693 C 201.073 845.579,201.658 845.202,203.846 844.908 C 205.490 844.687,205.725 844.554,205.725 843.838 C 205.725 842.765,206.339 842.301,207.871 842.215 C 209.769 842.110,210.018 842.173,210.018 842.755 C 210.018 843.089,210.356 843.292,210.912 843.292 C 211.469 843.292,211.807 843.089,211.807 842.755 C 211.807 842.421,212.145 842.218,212.701 842.218 C 213.258 842.218,213.596 842.421,213.596 842.755 C 213.596 843.152,214.013 843.292,215.206 843.292 C 216.453 843.292,216.816 843.161,216.816 842.711 C 216.816 841.892,229.549 842.124,230.073 842.953 C 230.347 843.385,230.401 843.371,230.406 842.867 C 230.413 842.127,240.466 842.150,240.713 842.890 C 240.910 843.480,241.503 843.379,241.503 842.755 C 241.503 842.380,241.880 842.218,242.755 842.218 C 243.692 842.218,244.007 842.370,244.007 842.823 C 244.007 843.350,244.073 843.339,244.514 842.735 C 245.592 841.261,253.652 842.190,253.382 843.758 C 253.239 844.590,253.538 844.662,258.565 845.011 C 263.102 845.326,264.438 845.783,263.639 846.747 C 262.925 847.606,263.444 847.667,272.165 847.756 C 284.812 847.886,286.941 847.728,286.941 846.666 C 286.941 845.598,287.894 845.081,289.869 845.078 C 294.112 845.071,296.243 844.656,296.243 843.837 C 296.243 842.784,297.406 842.251,299.955 842.135 C 302.012 842.041,302.064 842.013,302.459 840.787 C 302.842 839.599,302.953 839.530,304.651 839.435 C 306.946 839.307,307.673 839.071,307.019 838.667 C 306.224 838.175,307.177 836.852,308.331 836.847 C 310.125 836.838,310.912 836.458,310.912 835.601 C 310.912 834.662,311.443 834.139,312.725 833.817 C 313.352 833.660,313.744 833.230,313.975 832.447 C 314.252 831.507,314.516 831.286,315.474 831.194 C 316.484 831.096,316.637 830.949,316.637 830.075 C 316.637 828.927,317.148 828.388,318.405 828.210 C 319.035 828.120,319.357 827.777,319.564 826.976 C 319.777 826.151,320.136 825.783,320.963 825.545 C 322.079 825.223,322.535 824.382,323.223 821.377 C 323.407 820.575,323.645 820.394,324.515 820.394 C 325.540 820.394,325.581 820.332,325.581 818.784 C 325.581 817.354,325.672 817.173,326.386 817.168 C 327.848 817.158,328.168 816.650,328.354 814.039 C 328.526 811.642,328.581 811.516,329.690 810.987 C 331.092 810.319,331.304 809.495,331.311 804.696 C 331.317 800.858,331.475 800.395,332.810 800.285 C 333.734 800.208,333.737 800.197,333.874 796.437 C 334.046 791.713,334.404 790.901,335.729 792.226 C 336.240 792.737,336.752 793.005,336.866 792.821 C 336.980 792.637,337.788 792.487,338.662 792.487 C 340.108 792.487,340.250 792.408,340.250 791.613 C 340.250 790.669,341.010 789.935,341.248 790.649 C 341.342 790.931,341.651 790.795,342.122 790.265 C 342.615 789.711,342.903 789.591,343.012 789.893 C 343.339 790.804,343.828 790.299,343.828 789.049 C 343.828 788.049,343.949 787.805,344.365 787.965 C 344.660 788.078,344.902 788.039,344.902 787.879 C 344.902 787.422,346.087 786.200,346.780 785.943 C 347.124 785.816,347.406 785.465,347.406 785.163 C 347.406 784.862,347.567 784.615,347.764 784.615 C 347.961 784.615,348.122 784.374,348.122 784.079 C 348.122 783.784,347.888 783.542,347.602 783.542 C 346.879 783.542,345.259 782.772,345.259 782.428 C 345.259 781.865,348.015 781.399,351.521 781.369 C 353.488 781.352,354.897 781.258,354.651 781.158 C 352.731 780.384,354.824 778.781,358.058 778.549 C 360.581 778.367,360.770 778.297,360.827 777.516 C 360.900 776.494,361.551 776.043,362.970 776.029 C 364.898 776.011,365.653 775.650,365.653 774.747 C 365.653 773.805,366.580 773.166,367.948 773.166 C 368.651 773.166,368.909 772.942,369.075 772.182 C 369.457 770.440,369.530 770.354,370.718 770.239 C 371.955 770.119,372.022 769.989,372.746 766.369 C 372.963 765.279,373.147 765.102,374.161 765.004 C 374.802 764.942,375.264 764.781,375.188 764.646 C 374.540 763.496,375.951 759.385,377.030 759.280 L 378.175 759.168 378.171 748.367 C 378.167 736.009,378.067 734.886,376.966 734.878 C 375.726 734.869,375.369 734.423,375.248 732.731 C 375.159 731.472,374.961 731.051,374.329 730.774 C 373.836 730.557,373.524 730.107,373.524 729.611 C 373.524 729.141,373.306 728.801,373.004 728.801 C 372.694 728.801,372.390 728.305,372.253 727.577 C 372.057 726.529,371.834 726.307,370.717 726.045 C 369.591 725.780,369.394 725.581,369.299 724.607 C 369.203 723.626,369.038 723.462,368.047 723.366 C 367.131 723.278,366.776 722.990,366.250 721.914 C 365.826 721.047,365.347 720.572,364.896 720.572 C 363.507 720.572,361.779 719.587,361.657 718.724 C 361.548 717.958,361.327 717.874,358.981 717.710 C 356.429 717.532,354.919 716.796,354.919 715.732 C 354.919 715.011,353.063 714.848,344.843 714.848 L 337.002 714.848 335.674 716.268 C 334.400 717.633,334.248 717.693,331.846 717.789 C 329.669 717.876,329.329 717.982,329.215 718.605 C 328.985 719.875,328.057 720.572,326.599 720.572 C 325.492 720.572,325.224 720.704,325.224 721.244 C 325.224 722.071,324.720 722.490,322.987 723.103 C 322.250 723.365,321.646 723.771,321.646 724.006 C 321.646 724.241,321.082 724.929,320.394 725.533 C 319.705 726.138,319.141 726.799,319.141 727.002 C 319.141 727.204,318.913 727.370,318.634 727.370 C 318.355 727.370,317.872 727.468,317.561 727.587 C 316.719 727.910,316.874 727.092,317.826 726.190 C 318.284 725.757,318.764 725.115,318.893 724.763 C 319.023 724.412,319.614 723.848,320.206 723.511 C 320.799 723.174,321.285 722.635,321.286 722.313 C 321.288 721.675,322.518 720.733,323.624 720.519 C 324.007 720.446,324.380 720.065,324.453 719.674 C 324.657 718.575,325.223 718.068,326.251 718.063 C 327.917 718.054,328.611 717.687,329.159 716.524 C 329.684 715.410,329.760 715.380,332.581 715.196 C 335.322 715.018,335.522 714.946,336.576 713.765 L 337.686 712.522 343.861 712.402 C 351.738 712.248,352.873 712.417,354.485 713.983 C 355.686 715.149,355.866 715.206,358.365 715.206 C 360.837 715.206,361.020 715.261,361.595 716.190 C 362.482 717.623,363.146 718.068,364.398 718.068 C 365.719 718.068,366.369 718.622,366.369 719.750 C 366.369 720.461,366.550 720.573,367.710 720.578 C 369.405 720.585,369.907 720.908,370.253 722.213 C 370.460 722.990,370.775 723.285,371.491 723.369 C 372.485 723.486,372.551 723.607,372.600 725.403 C 372.623 726.250,372.873 726.589,373.787 727.013 C 374.427 727.309,374.872 727.749,374.782 727.996 C 374.682 728.273,374.923 728.433,375.414 728.415 C 375.850 728.400,376.006 728.306,375.760 728.207 C 374.590 727.734,376.194 726.567,378.645 726.107 C 380.399 725.778,380.680 725.149,380.680 721.550 C 380.680 719.897,380.835 717.673,381.025 716.607 C 381.215 715.541,381.463 714.065,381.578 713.327 C 381.845 711.603,382.824 711.463,382.832 713.148 C 382.836 714.031,382.921 714.182,383.184 713.775 C 383.790 712.837,383.635 703.206,383.005 702.683 C 382.635 702.376,382.469 702.362,382.469 702.640 C 382.469 702.860,382.336 703.041,382.174 703.041 C 381.686 703.041,380.941 698.810,380.714 694.751 C 380.482 690.587,380.438 690.471,379.093 690.393 C 378.227 690.343,378.176 690.230,378.171 688.372 C 378.163 685.439,377.930 684.895,376.575 684.641 C 375.423 684.425,375.395 684.375,375.243 682.280 C 375.083 680.065,374.437 679.106,373.087 679.081 C 372.697 679.074,372.362 678.644,372.172 677.907 C 371.942 677.011,371.590 676.652,370.641 676.342 C 369.641 676.015,369.389 675.735,369.300 674.852 C 369.206 673.925,368.995 673.719,367.869 673.454 C 366.721 673.184,366.533 672.993,366.435 671.992 C 366.339 670.998,366.187 670.841,365.328 670.841 C 364.255 670.841,363.148 669.885,363.148 668.958 C 363.148 668.376,362.818 668.218,360.730 667.797 C 359.567 667.563,358.822 666.728,359.097 665.967 C 359.267 665.497,358.098 665.128,356.417 665.121 C 354.639 665.114,353.740 664.514,353.993 663.505 C 354.216 662.616,353.477 662.447,348.122 662.161 C 346.661 662.083,346.501 661.985,346.400 661.103 C 346.243 659.744,345.746 659.695,333.274 659.821 C 322.815 659.926,322.540 659.947,322.540 660.644 C 322.540 661.923,322.031 662.254,320.065 662.254 C 316.436 662.254,314.804 662.625,315.048 663.394 C 315.383 664.451,314.567 665.116,312.926 665.121 C 310.653 665.129,309.839 665.450,309.839 666.339 C 309.839 667.391,309.183 667.979,308.008 667.979 C 306.497 667.979,305.903 668.339,305.903 669.255 C 305.903 669.946,305.630 670.168,304.383 670.491 C 301.584 671.214,301.569 671.222,301.788 671.913 C 302.037 672.696,300.786 673.703,299.563 673.703 C 298.946 673.703,298.748 673.907,298.748 674.542 C 298.748 675.408,297.759 676.565,297.020 676.565 C 296.790 676.565,296.601 676.882,296.601 677.268 C 296.601 677.655,296.288 678.139,295.906 678.343 C 295.420 678.604,295.178 679.171,295.101 680.234 C 294.998 681.660,294.919 681.760,293.828 681.865 C 292.784 681.966,292.665 682.093,292.663 683.117 C 292.660 685.357,291.968 686.996,290.848 687.419 C 289.807 687.812,289.580 688.472,289.721 690.698 C 289.812 692.125,289.441 692.974,288.677 693.088 C 287.060 693.329,286.805 695.347,286.782 708.050 C 286.762 719.645,286.764 719.681,287.567 720.483 C 288.010 720.926,288.372 721.691,288.372 722.182 C 288.372 722.739,288.575 723.077,288.909 723.077 C 289.537 723.077,289.515 722.991,289.622 725.806 C 289.724 728.462,289.908 728.801,291.243 728.801 C 292.348 728.801,293.023 729.606,293.023 730.925 C 293.023 731.586,293.240 731.664,295.090 731.664 C 297.432 731.664,298.747 732.347,298.748 733.562 C 298.749 734.327,298.663 734.342,295.439 734.165 C 291.774 733.964,290.362 733.436,290.694 732.391 C 291.001 731.423,287.452 731.221,272.730 731.365 L 260.487 731.485 259.473 732.700 C 258.449 733.926,257.373 734.173,251.610 734.501 C 251.364 734.514,251.163 734.823,251.163 735.186 C 251.163 736.265,249.992 737.030,248.344 737.030 C 246.964 737.030,246.789 737.136,246.325 738.246 C 245.849 739.385,245.681 739.478,243.690 739.709 C 241.777 739.931,241.520 740.061,241.130 741.002 C 240.411 742.738,237.388 742.999,237.388 741.326 C 237.388 740.547,237.611 740.387,239.152 740.060 C 240.126 739.854,240.988 739.452,241.077 739.163 C 241.466 737.902,242.334 737.388,244.074 737.388 C 245.423 737.388,245.862 737.246,246.012 736.762 C 246.519 735.121,246.711 734.999,249.796 734.364 C 250.437 734.233,250.793 733.903,250.870 733.372 C 251.045 732.150,252.445 731.675,255.885 731.669 C 258.933 731.664,259.020 731.639,260.084 730.501 L 261.170 729.338 273.680 729.159 C 282.586 729.032,286.312 728.859,286.611 728.559 C 287.551 727.619,287.170 721.387,286.105 720.276 C 285.581 719.729,285.152 719.040,285.152 718.746 C 285.152 718.452,284.964 718.023,284.734 717.793 C 284.248 717.307,283.960 699.163,284.429 698.569 C 284.585 698.372,284.826 697.678,284.965 697.025 C 285.127 696.271,285.532 695.697,286.080 695.447 C 286.864 695.090,286.941 694.842,286.941 692.668 C 286.941 691.355,287.053 690.168,287.190 690.031 C 287.327 689.895,287.475 689.533,287.520 689.228 C 287.686 688.095,288.010 687.657,288.680 687.657 C 289.647 687.657,289.803 687.009,289.803 683.014 C 289.803 678.836,290.099 679.070,284.814 679.070 C 278.745 679.070,275.824 678.328,277.053 677.099 C 277.375 676.778,277.638 676.485,277.637 676.450 C 277.636 676.415,276.276 676.386,274.615 676.386 C 271.941 676.386,271.695 676.439,272.470 676.845 C 274.730 678.029,272.307 678.736,265.295 678.939 C 258.674 679.131,257.410 679.301,257.931 679.929 C 258.814 680.993,256.163 681.932,252.278 681.932 L 249.188 681.932 249.192 683.095 C 249.195 684.198,249.121 684.263,247.764 684.353 C 245.456 684.507,244.723 684.765,244.717 685.427 C 244.707 686.540,244.144 686.981,242.409 687.231 C 240.854 687.456,240.665 687.589,240.297 688.730 C 239.918 689.903,239.785 689.989,238.193 690.091 L 236.494 690.200 236.494 626.269 L 236.494 562.339 242.198 562.503 L 247.902 562.667 248.951 561.030 C 251.142 557.608,256.000 548.158,259.364 540.772 C 260.795 537.632,262.262 534.419,262.624 533.631 C 265.020 528.433,265.832 526.519,265.832 526.071 C 265.832 525.790,266.292 524.640,266.854 523.514 C 267.416 522.388,267.983 521.020,268.115 520.473 C 268.247 519.927,268.745 518.639,269.222 517.611 C 269.699 516.583,270.396 514.857,270.771 513.775 C 273.574 505.696,276.997 496.770,276.808 498.032 C 276.524 499.941,271.764 524.047,269.866 533.194 L 269.288 535.977 270.492 537.219 C 271.155 537.902,271.907 538.462,272.163 538.462 C 272.420 538.462,272.630 538.603,272.630 538.776 C 272.630 538.949,273.555 539.788,274.687 540.640 C 277.383 542.670,277.210 542.535,279.115 544.088 C 280.025 544.831,281.233 545.799,281.798 546.239 C 283.801 547.800,289.282 552.121,290.340 552.974 C 290.930 553.450,292.862 554.977,294.633 556.366 C 296.404 557.756,298.282 559.287,298.805 559.769 C 299.329 560.250,299.902 560.644,300.080 560.644 C 300.257 560.644,300.866 561.127,301.431 561.717 C 301.997 562.308,302.583 562.791,302.734 562.791 C 302.885 562.791,303.394 563.153,303.865 563.596 C 304.336 564.038,305.646 565.125,306.776 566.011 C 309.866 568.432,311.708 569.890,312.701 570.702 C 315.376 572.890,321.492 577.712,322.179 578.175 C 322.617 578.470,324.547 580.000,326.469 581.574 C 328.390 583.148,330.323 584.678,330.765 584.973 C 331.207 585.268,333.321 586.918,335.462 588.639 C 337.604 590.359,340.483 592.664,341.860 593.760 C 343.238 594.855,346.111 597.151,348.244 598.860 C 350.378 600.569,352.452 602.154,352.854 602.383 C 353.256 602.611,353.684 602.941,353.805 603.115 C 354.036 603.449,359.513 607.834,361.414 609.206 C 362.022 609.646,363.345 610.704,364.355 611.559 C 365.907 612.873,368.256 614.717,373.043 618.379 C 374.628 619.592,374.538 619.103,370.283 603.399 C 369.696 601.234,369.219 599.223,369.223 598.929 C 369.227 598.635,368.759 596.703,368.183 594.635 C 367.607 592.568,366.633 588.864,366.018 586.404 C 365.403 583.945,364.422 580.161,363.838 577.996 C 363.254 575.832,362.779 573.876,362.783 573.651 C 362.787 573.425,362.243 571.252,361.574 568.821 C 360.418 564.623,359.462 560.924,357.012 551.163 C 355.387 544.688,353.935 539.080,352.750 534.705 C 352.164 532.540,351.688 530.558,351.692 530.299 C 351.696 530.041,351.229 528.109,350.653 526.006 C 350.078 523.903,349.103 520.170,348.487 517.710 C 346.868 511.252,345.017 504.149,343.807 499.759 C 343.228 497.659,342.755 495.674,342.755 495.349 C 342.755 495.023,342.280 493.039,341.700 490.938 C 341.120 488.838,340.142 485.107,339.525 482.648 C 338.909 480.188,337.944 476.404,337.381 474.240 C 336.817 472.075,335.851 468.292,335.233 465.832 C 333.360 458.370,332.054 453.354,330.755 448.632 C 330.074 446.158,329.517 443.851,329.517 443.506 C 329.517 443.161,329.041 441.160,328.459 439.060 C 327.877 436.960,326.904 433.309,326.297 430.948 C 325.690 428.587,324.714 424.884,324.128 422.719 C 323.542 420.555,323.066 418.549,323.070 418.263 C 323.074 417.977,322.614 416.045,322.047 413.970 C 321.042 410.285,319.915 405.921,317.679 397.048 C 317.071 394.638,316.010 390.492,315.321 387.835 C 314.632 385.179,313.609 381.234,313.048 379.070 C 312.486 376.905,311.521 373.122,310.904 370.662 C 309.843 366.436,308.766 362.233,306.960 355.277 C 306.526 353.605,306.018 351.592,305.832 350.805 C 305.646 350.018,305.036 347.603,304.477 345.438 C 302.342 337.166,302.375 337.454,302.196 325.581 C 301.863 303.448,300.380 283.493,297.651 264.387 C 297.073 260.345,296.602 256.561,296.603 255.979 C 296.604 254.941,295.533 248.464,293.350 236.315 C 291.425 225.600,288.783 213.051,286.909 205.725 C 286.330 203.462,285.859 201.369,285.862 201.074 C 285.865 200.779,285.292 198.445,284.589 195.886 C 283.886 193.328,282.853 189.544,282.293 187.478 C 280.473 180.759,279.006 175.560,277.953 172.093 C 275.944 165.481,274.699 161.507,273.805 158.856 C 273.308 157.381,272.696 155.449,272.445 154.563 C 271.994 152.972,270.804 149.545,268.034 141.860 C 267.254 139.696,266.415 137.361,266.170 136.673 C 265.273 134.152,263.582 129.632,262.623 127.191 C 262.082 125.814,261.118 123.318,260.480 121.646 C 258.830 117.318,257.330 113.605,256.133 110.884 C 255.564 109.589,255.098 108.389,255.098 108.216 C 255.098 108.044,254.518 106.608,253.810 105.025 C 253.101 103.442,252.071 101.100,251.521 99.821 C 249.894 96.038,246.157 87.721,244.528 84.258 C 243.695 82.487,242.259 79.428,241.336 77.460 C 237.598 69.484,227.576 49.658,224.156 43.470 C 223.394 42.093,222.357 40.212,221.851 39.290 C 221.345 38.368,219.884 35.745,218.605 33.461 C 217.326 31.177,216.035 28.872,215.736 28.339 C 210.765 19.461,210.754 19.447,209.897 20.841 M210.931 55.277 C 211.627 56.261,212.676 57.710,213.263 58.497 C 213.849 59.284,215.010 60.875,215.841 62.032 C 216.672 63.188,217.674 64.575,218.068 65.112 C 218.462 65.649,219.104 66.554,219.496 67.123 C 219.887 67.692,220.722 68.840,221.350 69.674 C 222.607 71.343,222.592 71.851,221.205 74.608 C 220.812 75.389,220.286 76.673,220.036 77.460 C 219.786 78.247,219.256 79.535,218.858 80.322 C 218.461 81.109,218.016 82.236,217.869 82.826 C 217.722 83.417,217.115 85.027,216.520 86.404 C 215.509 88.743,214.624 91.020,212.141 97.674 C 211.590 99.150,210.645 101.646,210.040 103.220 C 209.435 104.794,208.942 106.294,208.943 106.552 C 208.944 106.811,208.546 107.894,208.059 108.958 C 207.572 110.022,207.076 111.340,206.956 111.887 C 206.836 112.433,206.290 114.088,205.742 115.564 C 205.195 117.039,204.501 119.052,204.201 120.036 C 203.901 121.020,203.399 122.549,203.086 123.435 C 201.951 126.639,200.072 132.279,198.913 135.957 C 198.262 138.023,197.294 141.082,196.760 142.755 C 196.227 144.428,195.266 147.567,194.625 149.732 C 193.984 151.896,193.018 155.116,192.479 156.887 C 191.939 158.658,190.986 161.959,190.361 164.222 C 189.736 166.485,188.760 169.946,188.193 171.914 C 187.627 173.882,186.604 177.585,185.920 180.143 C 185.236 182.701,184.263 186.324,183.757 188.193 C 183.252 190.063,182.692 192.317,182.514 193.202 C 182.336 194.088,181.794 196.342,181.309 198.211 C 179.243 206.188,174.890 225.319,173.617 232.021 C 173.430 233.005,172.921 235.581,172.486 237.746 C 169.898 250.624,167.429 264.045,167.099 267.027 C 166.965 268.239,166.425 271.887,165.899 275.134 C 156.747 331.651,155.091 397.721,161.614 446.154 C 162.131 449.991,162.660 454.258,162.790 455.635 C 163.068 458.575,164.529 467.073,166.025 474.454 C 166.608 477.326,167.084 479.970,167.084 480.330 C 167.084 481.631,170.753 497.107,172.872 504.746 C 173.487 506.963,173.885 508.881,173.757 509.010 C 173.629 509.138,173.524 509.052,173.524 508.818 C 173.524 508.585,173.091 507.713,172.561 506.880 C 172.031 506.048,171.204 504.642,170.723 503.757 C 170.242 502.871,169.477 501.503,169.024 500.716 C 168.571 499.928,167.709 498.399,167.109 497.317 C 166.509 496.234,165.593 494.624,165.075 493.739 C 164.557 492.853,163.485 491.002,162.694 489.624 C 161.903 488.247,160.720 486.234,160.065 485.152 C 159.411 484.070,158.675 482.782,158.431 482.290 C 158.186 481.798,157.587 480.751,157.100 479.964 C 156.612 479.177,155.819 477.809,155.338 476.923 C 154.857 476.038,154.092 474.669,153.639 473.882 C 151.688 470.492,150.324 467.702,149.967 466.369 C 143.613 442.624,139.642 417.401,136.871 383.184 C 135.080 361.068,135.348 315.268,137.389 294.633 C 137.797 290.501,138.273 285.188,138.445 282.826 C 138.998 275.250,141.670 255.198,143.832 242.397 C 144.397 239.052,145.002 235.429,145.178 234.347 C 146.134 228.457,150.613 207.435,152.838 198.390 C 154.204 192.841,155.829 186.571,156.779 183.184 C 157.194 181.708,157.735 179.615,157.983 178.533 C 158.436 176.556,159.328 173.541,161.421 166.905 C 162.042 164.937,162.668 162.764,162.811 162.075 C 162.954 161.386,163.464 159.696,163.944 158.318 C 164.423 156.941,165.356 154.123,166.015 152.057 C 168.053 145.675,170.312 139.064,172.558 132.916 C 174.646 127.197,175.733 124.293,176.439 122.540 C 176.836 121.556,177.415 120.027,177.726 119.141 C 178.037 118.256,178.609 116.807,178.996 115.921 C 179.384 115.036,179.989 113.506,180.342 112.522 C 180.694 111.538,181.734 108.962,182.652 106.798 C 183.571 104.633,184.448 102.460,184.602 101.968 C 184.756 101.476,185.286 100.188,185.781 99.106 C 186.275 98.023,187.203 95.930,187.842 94.454 C 188.481 92.979,189.448 90.805,189.990 89.624 C 190.533 88.444,191.742 85.787,192.677 83.721 C 196.558 75.143,205.715 56.414,207.502 53.398 L 208.404 51.877 209.035 52.683 C 209.382 53.126,210.235 54.293,210.931 55.277 M315.595 428.765 C 316.168 430.713,316.637 432.535,316.637 432.813 C 316.637 433.091,317.128 435.120,317.729 437.321 C 318.330 439.523,319.280 443.095,319.840 445.259 C 322.375 455.051,323.167 458.039,324.204 461.717 C 324.815 463.882,325.442 466.401,325.599 467.314 C 325.756 468.228,326.299 470.289,326.806 471.895 C 327.313 473.500,327.728 475.059,327.728 475.359 C 327.728 475.659,328.204 477.623,328.786 479.723 C 329.368 481.824,330.342 485.474,330.950 487.835 C 333.524 497.832,336.928 510.882,339.723 521.467 C 340.981 526.235,341.906 529.777,344.204 538.640 C 344.766 540.805,345.651 544.106,346.171 545.975 C 346.692 547.844,347.250 550.122,347.413 551.035 C 347.576 551.949,348.124 554.010,348.631 555.616 C 349.138 557.221,349.553 558.780,349.553 559.080 C 349.553 559.380,350.029 561.344,350.611 563.444 C 351.193 565.545,352.167 569.195,352.775 571.556 C 354.043 576.479,355.640 582.396,355.913 583.184 C 356.547 585.019,354.834 582.000,351.244 574.955 C 348.987 570.528,345.611 563.927,343.741 560.286 C 341.872 556.646,338.206 549.481,335.596 544.365 C 327.672 528.834,323.925 521.497,323.537 520.748 C 323.333 520.356,322.840 519.392,322.441 518.605 C 322.041 517.818,320.647 515.099,319.342 512.564 L 316.969 507.954 316.635 496.284 C 316.451 489.866,315.825 474.472,315.244 462.075 C 314.069 437.011,313.636 421.008,314.203 423.614 C 314.396 424.499,315.022 426.817,315.595 428.765 M102.130 473.851 L 101.138 510.341 98.395 515.725 C 96.887 518.686,95.489 521.431,95.288 521.825 C 95.088 522.218,94.707 522.943,94.442 523.435 C 93.845 524.545,88.821 534.298,87.532 536.852 C 87.333 537.245,86.219 539.419,85.055 541.682 C 83.892 543.945,82.616 546.440,82.221 547.227 C 81.825 548.014,81.250 549.141,80.942 549.732 C 77.791 555.766,74.782 561.584,72.940 565.201 C 70.271 570.443,70.163 570.460,71.492 565.434 C 72.058 563.291,73.038 559.365,73.670 556.708 C 74.301 554.052,75.291 549.906,75.870 547.496 C 76.449 545.085,77.414 541.060,78.014 538.551 C 78.614 536.042,79.562 532.138,80.121 529.875 C 80.680 527.612,81.393 524.633,81.707 523.256 C 82.020 521.878,82.537 519.705,82.855 518.426 C 84.358 512.384,85.917 506.026,86.934 501.789 C 87.548 499.231,88.526 495.165,89.106 492.755 C 89.686 490.344,90.654 486.319,91.257 483.810 C 92.846 477.196,94.224 471.570,95.353 467.084 C 95.898 464.919,96.468 462.424,96.618 461.538 C 96.769 460.653,97.310 458.448,97.820 456.638 C 98.330 454.829,98.748 453.074,98.748 452.738 C 98.748 452.402,99.289 450.099,99.951 447.620 C 100.612 445.141,101.533 441.503,101.996 439.535 C 103.215 434.355,103.214 434.022,102.130 473.851 M230.411 628.980 C 230.411 695.051,230.406 695.533,229.696 696.243 C 228.919 697.020,228.885 698.489,228.899 730.590 C 228.902 736.592,228.829 741.140,228.738 740.698 C 228.607 740.057,228.329 739.893,227.381 739.893 C 226.301 739.893,226.160 739.768,225.875 738.565 C 225.641 737.575,225.336 737.184,224.677 737.028 C 223.982 736.865,223.740 736.518,223.547 735.405 C 223.019 732.359,222.844 731.993,221.820 731.788 C 220.873 731.599,220.036 730.452,220.036 729.344 C 220.036 729.045,219.573 728.802,218.873 728.735 C 217.845 728.636,217.689 728.477,217.531 727.370 C 217.378 726.294,217.202 726.101,216.280 725.996 C 215.092 725.861,214.683 725.424,214.675 724.280 C 214.670 723.694,214.383 723.461,213.451 723.286 C 212.229 723.057,211.807 722.536,211.807 721.259 C 211.807 720.746,211.554 720.572,210.805 720.572 C 209.534 720.572,208.945 719.983,208.945 718.712 C 208.945 717.797,208.831 717.710,207.631 717.710 C 206.193 717.710,205.009 716.887,205.009 715.888 C 205.009 715.397,204.617 715.197,203.309 715.022 C 200.881 714.697,200.780 714.640,200.652 713.533 C 200.549 712.642,200.339 712.495,198.705 712.170 C 196.532 711.739,195.713 711.145,195.964 710.184 C 196.124 709.571,195.963 709.481,194.704 709.481 C 193.910 709.481,193.006 709.383,192.695 709.264 C 192.181 709.067,192.129 702.256,192.129 635.740 L 192.129 562.433 211.270 562.433 L 230.411 562.433 230.411 628.980 M219.678 680.501 C 219.678 680.698,218.953 680.859,218.068 680.859 L 216.458 680.859 216.458 683.363 L 216.458 685.868 217.889 685.868 L 219.320 685.868 219.320 684.436 L 219.320 683.005 220.751 683.005 L 222.182 683.005 222.182 681.574 C 222.182 680.177,222.153 680.143,220.930 680.143 C 220.242 680.143,219.678 680.304,219.678 680.501 M238.640 683.363 C 238.640 685.714,239.083 686.637,239.584 685.331 C 239.698 685.036,240.176 684.794,240.647 684.794 C 241.446 684.794,241.503 684.663,241.503 682.826 L 241.503 680.859 240.072 680.859 L 238.640 680.859 238.640 683.363 M52.236 693.927 C 52.236 695.098,48.975 695.417,47.678 694.373 C 46.859 693.713,47.612 693.381,49.932 693.381 C 51.758 693.381,52.236 693.494,52.236 693.927 M200.358 694.275 C 200.358 694.832,200.155 695.170,199.821 695.170 C 199.526 695.170,199.284 695.411,199.284 695.707 C 199.284 696.042,198.945 696.243,198.379 696.243 C 197.881 696.243,197.380 696.485,197.267 696.780 C 197.154 697.075,196.837 697.317,196.563 697.317 C 196.270 697.317,196.064 697.685,196.064 698.211 C 196.064 698.737,196.270 699.106,196.562 699.106 C 197.075 699.106,197.695 700.814,197.319 701.190 C 197.203 701.306,196.350 701.489,195.423 701.595 L 193.739 701.789 193.739 704.419 L 193.739 707.049 195.404 707.681 C 197.788 708.585,198.537 707.590,198.560 703.488 C 198.568 702.209,198.682 701.968,199.284 701.968 C 199.811 701.968,200.000 701.729,200.000 701.064 C 200.000 700.347,200.221 700.117,201.073 699.946 C 202.012 699.759,202.147 699.580,202.147 698.524 C 202.147 697.689,202.312 697.317,202.683 697.317 C 203.081 697.317,203.220 696.899,203.220 695.707 C 203.220 694.514,203.081 694.097,202.683 694.097 C 202.388 694.097,202.147 693.936,202.147 693.739 C 202.147 693.542,201.744 693.381,201.252 693.381 C 200.537 693.381,200.358 693.560,200.358 694.275 M218.471 721.479 C 217.828 723.153,218.230 726.175,219.152 726.594 C 219.649 726.821,220.173 727.322,220.316 727.707 C 220.683 728.701,223.579 731.664,224.183 731.664 C 224.460 731.664,224.687 731.986,224.687 732.379 C 224.687 732.773,224.835 733.095,225.015 733.095 C 225.196 733.095,225.599 733.193,225.910 733.312 C 226.553 733.559,226.787 727.247,226.149 726.853 C 225.970 726.742,225.714 726.008,225.581 725.222 C 225.376 724.007,225.208 723.792,224.458 723.792 C 223.664 723.792,222.564 722.109,222.801 721.257 C 222.957 720.694,218.688 720.913,218.471 721.479 M316.279 729.517 C 316.279 729.911,316.047 730.233,315.764 730.233 C 315.131 730.233,314.727 729.644,315.027 729.159 C 315.416 728.530,316.279 728.776,316.279 729.517 M302.980 735.061 C 303.247 735.328,301.923 736.673,301.393 736.673 C 299.923 736.673,298.541 735.210,299.296 734.455 C 299.502 734.248,302.692 734.773,302.980 735.061 M230.373 743.003 C 230.573 743.135,229.661 744.186,229.346 744.186 C 229.201 744.186,229.100 743.717,229.121 743.144 C 229.153 742.280,229.251 742.171,229.696 742.506 C 229.991 742.729,230.296 742.952,230.373 743.003 M236.899 744.420 C 236.563 744.999,236.514 744.950,236.505 744.025 C 236.497 743.255,236.601 743.076,236.889 743.364 C 237.172 743.647,237.175 743.946,236.899 744.420 M213.596 837.746 C 213.596 838.041,213.354 838.283,213.059 838.283 C 212.500 838.283,212.349 837.859,212.761 837.448 C 213.173 837.036,213.596 837.187,213.596 837.746 M212.197 840.133 C 212.542 840.776,212.502 840.991,211.963 841.385 C 211.078 842.032,209.428 841.988,209.168 841.310 C 208.538 839.670,211.363 838.573,212.197 840.133 M246.601 840.037 C 248.125 840.617,247.838 841.421,246.010 841.695 C 244.087 841.983,242.934 841.661,242.934 840.835 C 242.934 839.372,244.159 839.106,246.601 840.037 " stroke="none" fill="#ffffff" fill-rule="evenodd"></path><path id="path2" d="M209.897 20.841 C 209.165 22.032,205.002 29.189,204.334 30.404 C 204.016 30.982,203.177 32.468,202.469 33.706 C 200.292 37.512,199.199 39.460,198.196 41.324 C 196.996 43.555,194.475 48.307,194.006 49.224 C 193.813 49.602,193.313 50.555,192.896 51.342 C 192.478 52.129,189.937 57.200,187.248 62.612 C 184.559 68.023,182.033 73.095,181.635 73.882 C 181.237 74.669,180.801 75.555,180.667 75.850 C 180.533 76.145,179.901 77.513,179.262 78.891 C 178.623 80.268,177.617 82.442,177.027 83.721 C 176.437 85.000,175.578 86.852,175.118 87.835 C 174.658 88.819,173.609 91.154,172.788 93.023 C 171.966 94.893,170.829 97.429,170.262 98.659 C 169.695 99.890,169.231 100.965,169.231 101.049 C 169.231 101.133,168.748 102.246,168.157 103.521 C 167.567 104.797,167.084 105.931,167.084 106.042 C 167.084 106.153,166.601 107.298,166.011 108.587 C 165.420 109.876,164.937 111.084,164.937 111.272 C 164.937 111.460,164.467 112.624,163.893 113.857 C 163.318 115.091,162.335 117.388,161.709 118.962 C 161.083 120.537,160.104 122.932,159.534 124.286 C 158.964 125.640,158.497 126.938,158.497 127.170 C 158.497 127.403,158.157 128.297,157.742 129.157 C 157.327 130.017,156.708 131.536,156.367 132.534 C 156.026 133.531,155.304 135.474,154.761 136.852 C 153.843 139.182,152.409 143.029,151.361 145.975 C 151.116 146.664,150.277 148.998,149.496 151.163 C 147.023 158.017,145.572 162.218,145.279 163.376 C 145.123 163.993,144.599 165.603,144.114 166.954 C 142.921 170.279,139.355 181.566,137.404 188.193 C 136.795 190.259,135.901 193.241,135.416 194.820 C 134.932 196.398,134.388 198.410,134.207 199.292 C 134.027 200.173,133.480 202.263,132.991 203.936 C 130.470 212.563,123.853 240.361,123.105 245.474 C 122.949 246.537,122.411 249.419,121.908 251.878 C 120.211 260.192,116.631 282.294,116.635 284.439 C 116.636 285.129,116.227 288.591,115.727 292.131 C 115.227 295.672,114.674 300.742,114.498 303.399 C 114.322 306.055,113.932 311.047,113.631 314.490 C 112.651 325.705,112.343 333.700,112.351 347.738 L 112.358 361.538 111.244 365.653 C 108.891 374.343,106.735 382.481,104.514 391.055 C 103.928 393.318,103.012 396.780,102.480 398.748 C 101.947 400.716,101.316 403.211,101.078 404.293 C 100.840 405.376,100.306 407.469,99.892 408.945 C 99.177 411.490,98.368 414.558,95.926 423.971 C 93.240 434.324,92.185 438.321,91.392 441.145 C 90.923 442.818,90.440 444.669,90.319 445.259 C 90.107 446.291,89.368 449.093,86.967 457.961 C 86.354 460.224,85.853 462.317,85.854 462.612 C 85.855 462.907,85.375 464.670,84.788 466.530 C 84.201 468.389,83.721 470.208,83.721 470.571 C 83.721 470.934,83.250 472.874,82.675 474.882 C 82.099 476.890,81.151 480.385,80.567 482.648 C 79.984 484.911,78.909 489.016,78.179 491.771 C 77.448 494.526,76.389 498.551,75.824 500.716 C 74.564 505.544,72.896 511.944,71.533 517.174 C 70.969 519.338,70.024 522.961,69.433 525.224 C 67.937 530.946,66.408 536.809,65.093 541.860 C 64.479 544.222,63.438 548.166,62.780 550.626 C 61.582 555.104,60.342 559.837,58.303 567.710 C 57.704 570.022,56.738 573.633,56.156 575.733 C 55.575 577.833,55.098 579.797,55.098 580.097 C 55.098 580.397,54.683 581.956,54.176 583.562 C 53.669 585.167,53.121 587.228,52.959 588.142 C 52.796 589.056,52.256 591.252,51.759 593.023 C 51.262 594.794,50.353 598.175,49.739 600.537 C 49.125 602.898,48.056 606.881,47.364 609.387 C 45.797 615.059,45.886 615.191,49.417 612.433 C 50.992 611.203,52.815 609.794,53.469 609.302 C 56.795 606.800,61.048 603.412,61.399 602.986 C 61.617 602.721,61.920 602.504,62.071 602.504 C 62.222 602.504,63.010 601.933,63.821 601.234 C 64.632 600.536,65.456 599.850,65.653 599.710 C 65.850 599.570,67.460 598.335,69.231 596.964 C 71.002 595.594,72.612 594.356,72.809 594.213 C 73.005 594.070,73.810 593.415,74.597 592.757 C 75.385 592.099,77.196 590.684,78.623 589.612 C 80.049 588.541,81.216 587.541,81.216 587.392 C 81.216 587.242,81.409 587.120,81.644 587.120 C 81.879 587.120,82.513 586.697,83.052 586.180 C 83.592 585.664,84.343 585.060,84.722 584.839 C 85.732 584.250,91.632 579.533,92.274 578.801 C 92.577 578.457,93.000 578.175,93.215 578.175 C 93.429 578.175,94.068 577.692,94.633 577.102 C 95.199 576.512,95.815 576.029,96.002 576.029 C 96.190 576.029,96.522 575.811,96.741 575.544 C 97.085 575.123,100.378 572.521,104.274 569.589 C 107.825 566.916,111.843 563.662,112.093 563.256 C 112.250 563.000,112.553 562.791,112.765 562.791 C 112.977 562.791,113.815 562.219,114.626 561.521 C 115.437 560.822,116.261 560.132,116.458 559.988 C 116.807 559.732,121.394 556.177,124.152 554.025 C 124.908 553.435,126.988 551.830,128.774 550.460 C 130.560 549.089,132.021 547.841,132.021 547.687 C 132.021 547.532,132.233 547.406,132.491 547.406 C 132.750 547.406,133.424 546.923,133.989 546.333 C 134.555 545.742,135.221 545.259,135.470 545.259 C 135.718 545.259,136.050 545.049,136.208 544.791 C 136.365 544.533,137.835 543.285,139.474 542.018 C 141.113 540.751,143.077 539.231,143.837 538.640 C 144.598 538.050,146.557 536.538,148.192 535.281 C 149.826 534.023,151.292 532.880,151.450 532.739 C 151.609 532.599,151.262 530.246,150.681 527.512 C 148.918 519.227,147.758 513.303,147.876 513.186 C 147.937 513.124,149.426 515.919,151.185 519.396 C 152.944 522.872,154.747 526.260,155.193 526.924 C 155.638 527.588,156.234 528.645,156.517 529.272 C 156.800 529.899,157.603 531.377,158.301 532.558 C 159.000 533.739,159.916 535.349,160.338 536.136 C 160.760 536.923,161.484 538.065,161.948 538.674 C 162.411 539.283,162.791 539.904,162.791 540.053 C 162.791 540.203,163.274 541.041,163.864 541.916 C 164.454 542.791,164.937 543.597,164.937 543.707 C 164.937 543.817,166.829 546.726,169.141 550.171 C 174.338 557.914,174.126 557.600,175.811 560.050 L 177.203 562.075 181.625 562.075 L 186.047 562.075 186.047 634.347 L 186.047 706.619 185.224 706.619 C 184.175 706.619,183.542 705.986,183.542 704.937 C 183.542 704.282,183.342 704.111,182.558 704.099 C 179.874 704.057,172.195 703.435,171.646 703.215 C 170.835 702.891,170.835 701.978,171.646 701.932 C 172.063 701.908,171.974 701.801,171.377 701.610 C 170.886 701.452,165.947 701.308,160.403 701.288 L 150.323 701.252 149.312 702.095 C 147.996 703.191,145.660 703.675,140.656 703.888 L 136.590 704.062 135.598 705.251 C 134.663 706.373,134.447 706.450,131.802 706.619 C 129.259 706.781,128.957 706.881,128.557 707.686 C 127.874 709.062,127.038 709.481,124.976 709.481 C 123.339 709.481,123.077 709.576,123.077 710.171 C 123.077 711.273,121.401 712.343,119.674 712.343 C 118.288 712.343,118.140 712.432,117.951 713.377 C 117.773 714.267,117.501 714.469,115.993 714.831 C 114.550 715.177,114.154 715.452,113.740 716.391 C 113.327 717.328,112.990 717.563,111.845 717.710 C 110.620 717.868,110.439 718.015,110.343 718.930 C 110.217 720.131,109.694 720.559,108.342 720.567 C 107.572 720.571,107.360 720.760,107.269 721.520 C 107.148 722.532,106.670 722.911,105.098 723.241 C 104.347 723.399,104.114 723.657,104.114 724.331 C 104.114 725.002,103.814 725.340,102.862 725.737 C 101.906 726.137,101.610 726.471,101.610 727.152 C 101.610 728.306,101.167 728.553,100.027 728.033 C 98.802 727.475,98.859 726.547,100.148 726.060 C 100.824 725.805,101.234 725.368,101.311 724.819 C 101.388 724.277,101.847 723.778,102.586 723.435 C 103.221 723.140,103.745 722.641,103.749 722.327 C 103.759 721.562,104.898 720.572,105.768 720.572 C 106.251 720.572,106.578 720.211,106.813 719.418 C 107.089 718.490,107.410 718.205,108.457 717.961 C 109.504 717.717,109.723 717.523,109.578 716.967 C 109.299 715.903,110.127 715.206,111.667 715.206 C 112.909 715.206,113.103 715.078,113.573 713.953 C 113.860 713.265,114.305 712.700,114.561 712.699 C 115.908 712.693,117.710 711.907,117.710 711.325 C 117.710 710.392,118.433 709.840,119.660 709.834 C 121.367 709.826,122.319 709.463,122.552 708.729 C 122.961 707.438,123.787 706.977,125.696 706.971 C 127.805 706.965,128.036 706.848,128.867 705.367 C 129.434 704.356,129.610 704.288,131.908 704.202 C 135.012 704.087,135.957 703.865,135.957 703.254 C 135.957 702.158,138.451 701.523,143.685 701.286 C 147.915 701.094,148.906 700.943,149.508 700.398 C 150.789 699.239,159.735 698.421,162.031 699.253 C 165.106 700.369,168.164 699.704,168.152 697.922 C 168.145 696.892,167.790 696.392,166.860 696.103 C 166.313 695.932,166.035 695.466,165.872 694.444 C 165.668 693.172,165.538 693.023,164.619 693.023 C 163.447 693.023,162.913 692.516,162.736 691.234 C 162.632 690.487,162.376 690.310,161.181 690.161 C 159.862 689.996,159.735 689.883,159.571 688.730 C 159.417 687.653,159.241 687.461,158.318 687.357 C 156.897 687.196,156.351 686.696,156.350 685.555 C 156.350 684.689,156.218 684.607,154.664 684.506 C 152.695 684.379,152.057 683.957,152.057 682.783 C 152.057 682.020,151.900 681.932,150.527 681.932 C 148.712 681.932,147.269 681.066,147.515 680.124 C 147.723 679.328,147.124 679.070,145.068 679.070 C 142.978 679.070,141.682 678.449,141.682 677.447 C 141.682 676.522,140.617 676.211,137.433 676.202 C 134.997 676.196,133.600 675.567,133.710 674.525 C 133.829 673.392,133.542 673.374,115.385 673.352 C 97.634 673.331,96.387 673.401,96.060 674.433 C 95.779 675.318,92.978 676.208,90.469 676.208 C 89.007 676.208,88.265 676.375,87.939 676.778 C 86.290 678.818,85.891 679.070,84.303 679.070 C 82.257 679.070,81.574 679.343,81.574 680.161 C 81.574 681.129,80.188 681.932,78.518 681.932 C 77.208 681.932,76.998 682.055,76.540 683.095 C 76.188 683.897,75.751 684.289,75.134 684.358 C 73.032 684.593,72.630 684.801,72.630 685.652 C 72.630 686.688,72.055 687.198,70.706 687.357 C 69.890 687.453,69.595 687.736,69.275 688.730 C 68.937 689.783,68.674 690.010,67.621 690.161 C 66.617 690.304,66.344 690.518,66.245 691.234 C 66.060 692.571,65.486 693.066,64.255 692.949 C 63.242 692.853,63.139 692.943,63.036 694.007 C 62.913 695.290,62.176 695.536,61.012 694.685 C 60.121 694.033,60.543 693.023,61.706 693.023 C 62.335 693.023,62.612 692.829,62.612 692.387 C 62.612 691.431,63.591 690.225,64.472 690.096 C 65.007 690.018,65.345 689.623,65.547 688.842 C 65.792 687.892,66.035 687.682,66.999 687.589 C 67.955 687.497,68.177 687.310,68.268 686.520 C 68.409 685.302,68.925 684.883,70.464 684.734 C 71.513 684.633,71.738 684.444,71.993 683.453 C 72.224 682.556,72.485 682.290,73.132 682.290 C 75.243 682.290,76.120 681.878,76.447 680.733 C 76.750 679.674,76.903 679.588,78.993 679.307 C 80.528 679.100,81.216 678.851,81.216 678.502 C 81.216 677.353,82.589 676.565,84.590 676.565 C 86.563 676.565,87.657 675.987,87.657 674.942 C 87.657 674.070,88.956 673.703,92.050 673.703 C 94.982 673.703,95.092 673.672,96.298 672.501 C 97.509 671.325,97.619 671.294,101.598 671.036 C 106.757 670.702,107.236 670.490,107.549 668.401 C 107.812 666.647,106.999 665.474,105.520 665.474 C 105.053 665.474,104.747 665.063,104.482 664.079 L 104.106 662.684 101.626 662.435 C 99.166 662.187,99.145 662.176,99.036 661.057 C 98.927 659.937,98.909 659.927,96.565 659.750 C 94.042 659.558,92.872 658.934,93.137 657.920 C 93.322 657.216,92.385 657.081,84.794 656.719 C 79.487 656.467,78.954 656.324,79.229 655.229 C 79.436 654.404,79.382 654.383,77.109 654.383 C 74.995 654.383,74.077 654.782,75.224 655.203 C 77.233 655.939,72.500 656.823,66.324 656.865 C 62.079 656.894,60.823 657.150,60.823 657.985 C 60.823 659.014,59.415 659.749,57.434 659.755 C 55.512 659.761,54.506 660.154,54.877 660.754 C 55.285 661.414,54.084 662.179,52.245 662.432 C 50.721 662.641,50.446 662.797,50.442 663.450 C 50.434 664.594,50.028 665.038,48.866 665.173 C 48.037 665.270,47.737 665.552,47.406 666.547 C 47.106 667.447,46.745 667.834,46.124 667.923 C 44.931 668.094,44.427 668.582,44.297 669.691 C 44.209 670.439,43.939 670.686,43.005 670.876 C 41.359 671.210,41.497 670.815,41.172 676.118 C 41.157 676.364,40.762 676.565,40.294 676.565 C 38.744 676.565,38.617 677.148,38.721 683.768 L 38.819 689.982 41.682 690.178 C 44.864 690.396,46.154 690.911,46.154 691.962 C 46.154 692.805,46.891 692.742,37.917 692.670 C 27.259 692.583,23.614 692.896,23.614 693.895 C 23.614 695.140,22.899 695.527,20.590 695.533 C 18.223 695.539,17.406 695.848,17.694 696.630 C 18.006 697.475,17.324 698.120,15.869 698.356 C 14.748 698.537,14.467 698.745,14.366 699.468 C 14.189 700.746,13.653 701.252,12.479 701.252 C 11.583 701.252,11.449 701.386,11.449 702.282 C 11.449 703.152,10.539 704.491,10.142 704.204 C 9.433 703.692,8.587 704.234,8.587 705.199 C 8.587 706.289,7.531 707.093,6.576 706.730 C 6.003 706.513,5.631 707.549,5.394 710.018 C 5.207 711.969,5.106 712.176,4.293 712.288 C 2.760 712.500,2.505 712.984,2.496 715.697 C 2.488 718.026,2.086 720.752,1.693 721.146 C 1.334 721.504,0.389 720.817,0.249 720.095 C 0.165 719.669,0.076 722.283,0.049 725.904 C 0.000 732.473,0.002 732.487,0.700 731.682 L 1.399 730.875 1.616 731.896 C 1.735 732.457,1.968 733.172,2.135 733.484 C 2.302 733.797,2.482 735.407,2.536 737.062 C 2.654 740.713,2.752 741.049,3.620 740.774 C 4.244 740.576,4.503 741.067,4.336 742.129 C 4.312 742.276,4.506 742.397,4.767 742.397 C 5.027 742.397,5.390 742.996,5.572 743.727 C 5.839 744.797,6.127 745.121,7.047 745.383 C 8.022 745.661,8.207 745.897,8.300 746.969 C 8.369 747.781,8.662 748.368,9.123 748.622 C 10.048 749.131,10.406 749.629,10.217 750.145 C 10.134 750.373,10.578 750.749,11.205 750.980 C 13.063 751.667,13.420 751.942,13.353 752.638 C 13.273 753.470,13.834 753.834,15.209 753.841 C 16.372 753.847,17.307 754.871,16.964 755.764 C 16.819 756.144,17.174 756.347,18.312 756.535 C 21.105 756.998,21.867 757.810,20.215 758.562 C 18.772 759.220,19.154 759.471,22.001 759.738 C 25.368 760.053,25.965 761.360,22.743 761.360 C 21.677 761.360,21.608 761.552,22.394 762.338 C 22.846 762.789,23.022 762.811,23.248 762.445 C 23.623 761.839,24.329 762.294,24.329 763.141 C 24.329 763.602,24.687 763.885,25.492 764.059 C 27.041 764.394,28.623 765.548,28.623 766.343 C 28.623 766.850,29.016 767.031,30.499 767.207 C 31.531 767.329,32.430 767.593,32.496 767.793 C 32.563 767.993,32.843 768.157,33.118 768.157 C 33.393 768.157,33.721 768.568,33.847 769.069 C 34.027 769.789,34.273 769.963,35.016 769.896 C 36.313 769.780,38.680 770.913,38.900 771.756 C 39.014 772.194,39.391 772.451,39.918 772.451 C 40.733 772.451,42.576 773.118,42.934 773.543 C 43.288 773.963,44.365 774.210,44.365 773.871 C 44.365 773.680,44.526 773.524,44.723 773.524 C 44.919 773.524,45.081 773.766,45.081 774.061 C 45.081 774.356,45.315 774.597,45.603 774.597 C 46.381 774.597,47.879 772.823,47.695 772.119 C 47.528 771.480,48.509 770.393,48.900 770.784 C 49.111 770.995,49.159 771.416,49.311 774.387 C 49.369 775.518,49.480 775.626,50.805 775.850 C 52.197 776.085,52.237 776.132,52.278 777.581 C 52.363 780.559,52.656 781.199,54.028 781.397 C 55.210 781.567,55.275 781.649,55.236 782.917 C 55.201 784.079,55.302 784.258,55.998 784.258 C 57.214 784.258,57.489 784.756,58.197 788.253 C 58.330 788.906,58.690 789.282,59.337 789.445 C 60.651 789.774,61.181 790.290,61.181 791.240 C 61.181 792.069,61.785 792.487,62.983 792.487 C 63.465 792.487,63.718 792.837,63.888 793.739 C 64.017 794.428,64.346 795.011,64.619 795.036 C 66.035 795.163,66.547 795.577,66.547 796.594 C 66.547 797.242,66.297 797.494,65.474 797.674 C 64.354 797.920,63.885 799.284,64.920 799.284 C 65.205 799.284,65.584 799.544,65.761 799.861 C 66.022 800.327,66.126 800.229,66.301 799.353 C 66.567 798.022,67.784 797.505,68.638 798.360 C 69.297 799.018,68.959 799.860,67.776 800.513 C 67.395 800.723,67.015 800.936,66.931 800.988 C 66.847 801.039,67.129 801.407,67.557 801.807 C 67.986 802.206,68.336 802.687,68.336 802.876 C 68.336 803.468,69.729 804.643,70.211 804.458 C 70.476 804.357,70.959 804.815,71.349 805.540 C 71.722 806.232,72.226 806.798,72.469 806.798 C 73.005 806.798,73.343 807.599,73.351 808.884 C 73.355 809.571,73.444 809.700,73.670 809.343 C 73.921 808.947,74.064 808.997,74.386 809.598 C 74.622 810.040,75.002 810.267,75.309 810.149 C 75.918 809.915,76.581 810.525,77.172 811.860 C 77.423 812.430,77.851 812.787,78.241 812.755 C 78.676 812.719,78.856 812.908,78.786 813.327 C 78.714 813.757,78.915 813.953,79.426 813.953 C 80.581 813.953,82.927 815.291,83.182 816.094 C 83.321 816.531,83.723 816.816,84.202 816.816 C 85.197 816.816,86.583 817.765,86.583 818.446 C 86.583 819.321,87.998 819.033,88.437 818.068 C 88.969 816.900,90.418 816.846,90.846 817.979 C 91.013 818.421,91.074 818.913,90.980 819.072 C 90.586 819.738,91.266 821.109,91.990 821.109 C 92.432 821.109,92.808 821.399,92.920 821.825 C 93.023 822.218,93.239 822.540,93.402 822.540 C 93.564 822.540,93.832 823.225,93.998 824.061 C 94.284 825.504,94.357 825.576,95.437 825.466 C 96.635 825.345,97.318 826.454,96.830 827.727 C 96.684 828.108,96.860 828.265,97.435 828.265 C 98.519 828.265,99.106 828.911,99.106 830.106 C 99.106 830.823,99.369 831.214,100.085 831.557 C 100.624 831.816,101.125 832.339,101.198 832.719 C 101.271 833.100,101.716 833.714,102.186 834.084 C 102.668 834.463,103.041 835.136,103.041 835.625 C 103.041 836.290,103.232 836.494,103.856 836.494 C 104.980 836.494,106.189 837.413,106.326 838.372 C 106.393 838.842,106.734 839.216,107.156 839.283 C 108.864 839.553,109.839 840.167,109.839 840.971 C 109.839 841.859,110.445 842.218,111.943 842.218 C 113.117 842.218,113.775 842.806,113.775 843.854 C 113.775 844.480,114.044 844.674,115.159 844.853 C 116.748 845.107,117.518 845.841,117.254 846.850 C 117.090 847.478,117.321 847.574,119.537 847.792 C 121.971 848.032,122.269 848.238,122.027 849.520 C 121.916 850.107,122.869 850.436,124.697 850.442 C 126.788 850.448,128.222 851.243,127.911 852.222 C 127.656 853.028,128.553 853.298,131.506 853.305 C 133.803 853.310,134.745 853.752,134.947 854.919 C 135.083 855.708,136.936 856.068,141.211 856.136 C 144.699 856.192,146.399 857.262,144.633 858.290 C 144.201 858.542,148.745 858.658,159.326 858.665 C 174.605 858.676,174.645 858.674,174.413 857.943 C 174.009 856.671,174.834 856.175,177.414 856.136 C 181.322 856.078,183.735 855.689,183.617 855.137 C 183.366 853.972,184.647 853.309,187.152 853.309 C 190.091 853.309,191.413 852.872,191.413 851.900 C 191.413 850.936,192.453 850.448,194.520 850.442 C 196.066 850.437,197.358 850.062,197.103 849.692 C 196.679 849.076,197.547 847.942,198.446 847.938 C 200.285 847.929,201.073 847.556,201.073 846.693 C 201.073 845.579,201.658 845.202,203.846 844.908 C 205.490 844.687,205.725 844.554,205.725 843.838 C 205.725 842.765,206.339 842.301,207.871 842.215 C 209.769 842.110,210.018 842.173,210.018 842.755 C 210.018 843.089,210.356 843.292,210.912 843.292 C 211.469 843.292,211.807 843.089,211.807 842.755 C 211.807 842.421,212.145 842.218,212.701 842.218 C 213.258 842.218,213.596 842.421,213.596 842.755 C 213.596 843.152,214.013 843.292,215.206 843.292 C 216.453 843.292,216.816 843.161,216.816 842.711 C 216.816 841.892,229.549 842.124,230.073 842.953 C 230.347 843.385,230.401 843.371,230.406 842.867 C 230.413 842.127,240.466 842.150,240.713 842.890 C 240.910 843.480,241.503 843.379,241.503 842.755 C 241.503 842.380,241.880 842.218,242.755 842.218 C 243.692 842.218,244.007 842.370,244.007 842.823 C 244.007 843.350,244.073 843.339,244.514 842.735 C 245.592 841.261,253.652 842.190,253.382 843.758 C 253.239 844.590,253.538 844.662,258.565 845.011 C 263.102 845.326,264.438 845.783,263.639 846.747 C 262.925 847.606,263.444 847.667,272.165 847.756 C 284.812 847.886,286.941 847.728,286.941 846.666 C 286.941 845.598,287.894 845.081,289.869 845.078 C 294.112 845.071,296.243 844.656,296.243 843.837 C 296.243 842.784,297.406 842.251,299.955 842.135 C 302.012 842.041,302.064 842.013,302.459 840.787 C 302.842 839.599,302.953 839.530,304.651 839.435 C 306.946 839.307,307.673 839.071,307.019 838.667 C 306.224 838.175,307.177 836.852,308.331 836.847 C 310.125 836.838,310.912 836.458,310.912 835.601 C 310.912 834.662,311.443 834.139,312.725 833.817 C 313.352 833.660,313.744 833.230,313.975 832.447 C 314.252 831.507,314.516 831.286,315.474 831.194 C 316.484 831.096,316.637 830.949,316.637 830.075 C 316.637 828.927,317.148 828.388,318.405 828.210 C 319.035 828.120,319.357 827.777,319.564 826.976 C 319.777 826.151,320.136 825.783,320.963 825.545 C 322.079 825.223,322.535 824.382,323.223 821.377 C 323.407 820.575,323.645 820.394,324.515 820.394 C 325.540 820.394,325.581 820.332,325.581 818.784 C 325.581 817.354,325.672 817.173,326.386 817.168 C 327.848 817.158,328.168 816.650,328.354 814.039 C 328.526 811.642,328.581 811.516,329.690 810.987 C 331.092 810.319,331.304 809.495,331.311 804.696 C 331.317 800.858,331.475 800.395,332.810 800.285 C 333.734 800.208,333.737 800.197,333.874 796.437 C 334.046 791.713,334.404 790.901,335.729 792.226 C 336.240 792.737,336.752 793.005,336.866 792.821 C 336.980 792.637,337.788 792.487,338.662 792.487 C 340.108 792.487,340.250 792.408,340.250 791.613 C 340.250 790.669,341.010 789.935,341.248 790.649 C 341.342 790.931,341.651 790.795,342.122 790.265 C 342.615 789.711,342.903 789.591,343.012 789.893 C 343.339 790.804,343.828 790.299,343.828 789.049 C 343.828 788.049,343.949 787.805,344.365 787.965 C 344.660 788.078,344.902 788.039,344.902 787.879 C 344.902 787.422,346.087 786.200,346.780 785.943 C 347.124 785.816,347.406 785.465,347.406 785.163 C 347.406 784.862,347.567 784.615,347.764 784.615 C 347.961 784.615,348.122 784.374,348.122 784.079 C 348.122 783.784,347.888 783.542,347.602 783.542 C 346.879 783.542,345.259 782.772,345.259 782.428 C 345.259 781.865,348.015 781.399,351.521 781.369 C 353.488 781.352,354.897 781.258,354.651 781.158 C 352.731 780.384,354.824 778.781,358.058 778.549 C 360.581 778.367,360.770 778.297,360.827 777.516 C 360.900 776.494,361.551 776.043,362.970 776.029 C 364.898 776.011,365.653 775.650,365.653 774.747 C 365.653 773.805,366.580 773.166,367.948 773.166 C 368.651 773.166,368.909 772.942,369.075 772.182 C 369.457 770.440,369.530 770.354,370.718 770.239 C 371.955 770.119,372.022 769.989,372.746 766.369 C 372.963 765.279,373.147 765.102,374.161 765.004 C 374.802 764.942,375.264 764.781,375.188 764.646 C 374.540 763.496,375.951 759.385,377.030 759.280 L 378.175 759.168 378.171 748.367 C 378.167 736.009,378.067 734.886,376.966 734.878 C 375.726 734.869,375.369 734.423,375.248 732.731 C 375.159 731.472,374.961 731.051,374.329 730.774 C 373.836 730.557,373.524 730.107,373.524 729.611 C 373.524 729.141,373.306 728.801,373.004 728.801 C 372.694 728.801,372.390 728.305,372.253 727.577 C 372.057 726.529,371.834 726.307,370.717 726.045 C 369.591 725.780,369.394 725.581,369.299 724.607 C 369.203 723.626,369.038 723.462,368.047 723.366 C 367.131 723.278,366.776 722.990,366.250 721.914 C 365.826 721.047,365.347 720.572,364.896 720.572 C 363.507 720.572,361.779 719.587,361.657 718.724 C 361.548 717.958,361.327 717.874,358.981 717.710 C 356.429 717.532,354.919 716.796,354.919 715.732 C 354.919 715.011,353.063 714.848,344.843 714.848 L 337.002 714.848 335.674 716.268 C 334.400 717.633,334.248 717.693,331.846 717.789 C 329.669 717.876,329.329 717.982,329.215 718.605 C 328.985 719.875,328.057 720.572,326.599 720.572 C 325.492 720.572,325.224 720.704,325.224 721.244 C 325.224 722.071,324.720 722.490,322.987 723.103 C 322.250 723.365,321.646 723.771,321.646 724.006 C 321.646 724.241,321.082 724.929,320.394 725.533 C 319.705 726.138,319.141 726.799,319.141 727.002 C 319.141 727.204,318.913 727.370,318.634 727.370 C 318.355 727.370,317.872 727.468,317.561 727.587 C 316.719 727.910,316.874 727.092,317.826 726.190 C 318.284 725.757,318.764 725.115,318.893 724.763 C 319.023 724.412,319.614 723.848,320.206 723.511 C 320.799 723.174,321.285 722.635,321.286 722.313 C 321.288 721.675,322.518 720.733,323.624 720.519 C 324.007 720.446,324.380 720.065,324.453 719.674 C 324.657 718.575,325.223 718.068,326.251 718.063 C 327.917 718.054,328.611 717.687,329.159 716.524 C 329.684 715.410,329.760 715.380,332.581 715.196 C 335.322 715.018,335.522 714.946,336.576 713.765 L 337.686 712.522 343.861 712.402 C 351.738 712.248,352.873 712.417,354.485 713.983 C 355.686 715.149,355.866 715.206,358.365 715.206 C 360.837 715.206,361.020 715.261,361.595 716.190 C 362.482 717.623,363.146 718.068,364.398 718.068 C 365.719 718.068,366.369 718.622,366.369 719.750 C 366.369 720.461,366.550 720.573,367.710 720.578 C 369.405 720.585,369.907 720.908,370.253 722.213 C 370.460 722.990,370.775 723.285,371.491 723.369 C 372.485 723.486,372.551 723.607,372.600 725.403 C 372.623 726.250,372.873 726.589,373.787 727.013 C 374.427 727.309,374.872 727.749,374.782 727.996 C 374.682 728.273,374.923 728.433,375.414 728.415 C 375.850 728.400,376.006 728.306,375.760 728.207 C 374.590 727.734,376.194 726.567,378.645 726.107 C 380.399 725.778,380.680 725.149,380.680 721.550 C 380.680 719.897,380.835 717.673,381.025 716.607 C 381.215 715.541,381.463 714.065,381.578 713.327 C 381.845 711.603,382.824 711.463,382.832 713.148 C 382.836 714.031,382.921 714.182,383.184 713.775 C 383.790 712.837,383.635 703.206,383.005 702.683 C 382.635 702.376,382.469 702.362,382.469 702.640 C 382.469 702.860,382.336 703.041,382.174 703.041 C 381.686 703.041,380.941 698.810,380.714 694.751 C 380.482 690.587,380.438 690.471,379.093 690.393 C 378.227 690.343,378.176 690.230,378.171 688.372 C 378.163 685.439,377.930 684.895,376.575 684.641 C 375.423 684.425,375.395 684.375,375.243 682.280 C 375.083 680.065,374.437 679.106,373.087 679.081 C 372.697 679.074,372.362 678.644,372.172 677.907 C 371.942 677.011,371.590 676.652,370.641 676.342 C 369.641 676.015,369.389 675.735,369.300 674.852 C 369.206 673.925,368.995 673.719,367.869 673.454 C 366.721 673.184,366.533 672.993,366.435 671.992 C 366.339 670.998,366.187 670.841,365.328 670.841 C 364.255 670.841,363.148 669.885,363.148 668.958 C 363.148 668.376,362.818 668.218,360.730 667.797 C 359.567 667.563,358.822 666.728,359.097 665.967 C 359.267 665.497,358.098 665.128,356.417 665.121 C 354.639 665.114,353.740 664.514,353.993 663.505 C 354.216 662.616,353.477 662.447,348.122 662.161 C 346.661 662.083,346.501 661.985,346.400 661.103 C 346.243 659.744,345.746 659.695,333.274 659.821 C 322.815 659.926,322.540 659.947,322.540 660.644 C 322.540 661.923,322.031 662.254,320.065 662.254 C 316.436 662.254,314.804 662.625,315.048 663.394 C 315.383 664.451,314.567 665.116,312.926 665.121 C 310.653 665.129,309.839 665.450,309.839 666.339 C 309.839 667.391,309.183 667.979,308.008 667.979 C 306.497 667.979,305.903 668.339,305.903 669.255 C 305.903 669.946,305.630 670.168,304.383 670.491 C 301.584 671.214,301.569 671.222,301.788 671.913 C 302.037 672.696,300.786 673.703,299.563 673.703 C 298.946 673.703,298.748 673.907,298.748 674.542 C 298.748 675.408,297.759 676.565,297.020 676.565 C 296.790 676.565,296.601 676.882,296.601 677.268 C 296.601 677.655,296.288 678.139,295.906 678.343 C 295.420 678.604,295.178 679.171,295.101 680.234 C 294.998 681.660,294.919 681.760,293.828 681.865 C 292.784 681.966,292.665 682.093,292.663 683.117 C 292.660 685.357,291.968 686.996,290.848 687.419 C 289.807 687.812,289.580 688.472,289.721 690.698 C 289.812 692.125,289.441 692.974,288.677 693.088 C 287.060 693.329,286.805 695.347,286.782 708.050 C 286.762 719.645,286.764 719.681,287.567 720.483 C 288.010 720.926,288.372 721.691,288.372 722.182 C 288.372 722.739,288.575 723.077,288.909 723.077 C 289.537 723.077,289.515 722.991,289.622 725.806 C 289.724 728.462,289.908 728.801,291.243 728.801 C 292.348 728.801,293.023 729.606,293.023 730.925 C 293.023 731.586,293.240 731.664,295.090 731.664 C 297.432 731.664,298.747 732.347,298.748 733.562 C 298.749 734.327,298.663 734.342,295.439 734.165 C 291.774 733.964,290.362 733.436,290.694 732.391 C 291.001 731.423,287.452 731.221,272.730 731.365 L 260.487 731.485 259.473 732.700 C 258.449 733.926,257.373 734.173,251.610 734.501 C 251.364 734.514,251.163 734.823,251.163 735.186 C 251.163 736.265,249.992 737.030,248.344 737.030 C 246.964 737.030,246.789 737.136,246.325 738.246 C 245.849 739.385,245.681 739.478,243.690 739.709 C 241.777 739.931,241.520 740.061,241.130 741.002 C 240.411 742.738,237.388 742.999,237.388 741.326 C 237.388 740.547,237.611 740.387,239.152 740.060 C 240.126 739.854,240.988 739.452,241.077 739.163 C 241.466 737.902,242.334 737.388,244.074 737.388 C 245.423 737.388,245.862 737.246,246.012 736.762 C 246.519 735.121,246.711 734.999,249.796 734.364 C 250.437 734.233,250.793 733.903,250.870 733.372 C 251.045 732.150,252.445 731.675,255.885 731.669 C 258.933 731.664,259.020 731.639,260.084 730.501 L 261.170 729.338 273.680 729.159 C 282.586 729.032,286.312 728.859,286.611 728.559 C 287.551 727.619,287.170 721.387,286.105 720.276 C 285.581 719.729,285.152 719.040,285.152 718.746 C 285.152 718.452,284.964 718.023,284.734 717.793 C 284.248 717.307,283.960 699.163,284.429 698.569 C 284.585 698.372,284.826 697.678,284.965 697.025 C 285.127 696.271,285.532 695.697,286.080 695.447 C 286.864 695.090,286.941 694.842,286.941 692.668 C 286.941 691.355,287.053 690.168,287.190 690.031 C 287.327 689.895,287.475 689.533,287.520 689.228 C 287.686 688.095,288.010 687.657,288.680 687.657 C 289.647 687.657,289.803 687.009,289.803 683.014 C 289.803 678.836,290.099 679.070,284.814 679.070 C 278.745 679.070,275.824 678.328,277.053 677.099 C 277.375 676.778,277.638 676.485,277.637 676.450 C 277.636 676.415,276.276 676.386,274.615 676.386 C 271.941 676.386,271.695 676.439,272.470 676.845 C 274.730 678.029,272.307 678.736,265.295 678.939 C 258.674 679.131,257.410 679.301,257.931 679.929 C 258.814 680.993,256.163 681.932,252.278 681.932 L 249.188 681.932 249.192 683.095 C 249.195 684.198,249.121 684.263,247.764 684.353 C 245.456 684.507,244.723 684.765,244.717 685.427 C 244.707 686.540,244.144 686.981,242.409 687.231 C 240.854 687.456,240.665 687.589,240.297 688.730 C 239.918 689.903,239.785 689.989,238.193 690.091 L 236.494 690.200 236.494 626.269 L 236.494 562.339 242.198 562.503 L 247.902 562.667 248.951 561.030 C 251.142 557.608,256.000 548.158,259.364 540.772 C 260.795 537.632,262.262 534.419,262.624 533.631 C 265.020 528.433,265.832 526.519,265.832 526.071 C 265.832 525.790,266.292 524.640,266.854 523.514 C 267.416 522.388,267.983 521.020,268.115 520.473 C 268.247 519.927,268.745 518.639,269.222 517.611 C 269.699 516.583,270.396 514.857,270.771 513.775 C 273.574 505.696,276.997 496.770,276.808 498.032 C 276.524 499.941,271.764 524.047,269.866 533.194 L 269.288 535.977 270.492 537.219 C 271.155 537.902,271.907 538.462,272.163 538.462 C 272.420 538.462,272.630 538.603,272.630 538.776 C 272.630 538.949,273.555 539.788,274.687 540.640 C 277.383 542.670,277.210 542.535,279.115 544.088 C 280.025 544.831,281.233 545.799,281.798 546.239 C 283.801 547.800,289.282 552.121,290.340 552.974 C 290.930 553.450,292.862 554.977,294.633 556.366 C 296.404 557.756,298.282 559.287,298.805 559.769 C 299.329 560.250,299.902 560.644,300.080 560.644 C 300.257 560.644,300.866 561.127,301.431 561.717 C 301.997 562.308,302.583 562.791,302.734 562.791 C 302.885 562.791,303.394 563.153,303.865 563.596 C 304.336 564.038,305.646 565.125,306.776 566.011 C 309.866 568.432,311.708 569.890,312.701 570.702 C 315.376 572.890,321.492 577.712,322.179 578.175 C 322.617 578.470,324.547 580.000,326.469 581.574 C 328.390 583.148,330.323 584.678,330.765 584.973 C 331.207 585.268,333.321 586.918,335.462 588.639 C 337.604 590.359,340.483 592.664,341.860 593.760 C 343.238 594.855,346.111 597.151,348.244 598.860 C 350.378 600.569,352.452 602.154,352.854 602.383 C 353.256 602.611,353.684 602.941,353.805 603.115 C 354.036 603.449,359.513 607.834,361.414 609.206 C 362.022 609.646,363.345 610.704,364.355 611.559 C 365.907 612.873,368.256 614.717,373.043 618.379 C 374.628 619.592,374.538 619.103,370.283 603.399 C 369.696 601.234,369.219 599.223,369.223 598.929 C 369.227 598.635,368.759 596.703,368.183 594.635 C 367.607 592.568,366.633 588.864,366.018 586.404 C 365.403 583.945,364.422 580.161,363.838 577.996 C 363.254 575.832,362.779 573.876,362.783 573.651 C 362.787 573.425,362.243 571.252,361.574 568.821 C 360.418 564.623,359.462 560.924,357.012 551.163 C 355.387 544.688,353.935 539.080,352.750 534.705 C 352.164 532.540,351.688 530.558,351.692 530.299 C 351.696 530.041,351.229 528.109,350.653 526.006 C 350.078 523.903,349.103 520.170,348.487 517.710 C 346.868 511.252,345.017 504.149,343.807 499.759 C 343.228 497.659,342.755 495.674,342.755 495.349 C 342.755 495.023,342.280 493.039,341.700 490.938 C 341.120 488.838,340.142 485.107,339.525 482.648 C 338.909 480.188,337.944 476.404,337.381 474.240 C 336.817 472.075,335.851 468.292,335.233 465.832 C 333.360 458.370,332.054 453.354,330.755 448.632 C 330.074 446.158,329.517 443.851,329.517 443.506 C 329.517 443.161,329.041 441.160,328.459 439.060 C 327.877 436.960,326.904 433.309,326.297 430.948 C 325.690 428.587,324.714 424.884,324.128 422.719 C 323.542 420.555,323.066 418.549,323.070 418.263 C 323.074 417.977,322.614 416.045,322.047 413.970 C 321.042 410.285,319.915 405.921,317.679 397.048 C 317.071 394.638,316.010 390.492,315.321 387.835 C 314.632 385.179,313.609 381.234,313.048 379.070 C 312.486 376.905,311.521 373.122,310.904 370.662 C 309.843 366.436,308.766 362.233,306.960 355.277 C 306.526 353.605,306.018 351.592,305.832 350.805 C 305.646 350.018,305.036 347.603,304.477 345.438 C 302.342 337.166,302.375 337.454,302.196 325.581 C 301.863 303.448,300.380 283.493,297.651 264.387 C 297.073 260.345,296.602 256.561,296.603 255.979 C 296.604 254.941,295.533 248.464,293.350 236.315 C 291.425 225.600,288.783 213.051,286.909 205.725 C 286.330 203.462,285.859 201.369,285.862 201.074 C 285.865 200.779,285.292 198.445,284.589 195.886 C 283.886 193.328,282.853 189.544,282.293 187.478 C 280.473 180.759,279.006 175.560,277.953 172.093 C 275.944 165.481,274.699 161.507,273.805 158.856 C 273.308 157.381,272.696 155.449,272.445 154.563 C 271.994 152.972,270.804 149.545,268.034 141.860 C 267.254 139.696,266.415 137.361,266.170 136.673 C 265.273 134.152,263.582 129.632,262.623 127.191 C 262.082 125.814,261.118 123.318,260.480 121.646 C 258.830 117.318,257.330 113.605,256.133 110.884 C 255.564 109.589,255.098 108.389,255.098 108.216 C 255.098 108.044,254.518 106.608,253.810 105.025 C 253.101 103.442,252.071 101.100,251.521 99.821 C 249.894 96.038,246.157 87.721,244.528 84.258 C 243.695 82.487,242.259 79.428,241.336 77.460 C 237.598 69.484,227.576 49.658,224.156 43.470 C 223.394 42.093,222.357 40.212,221.851 39.290 C 221.345 38.368,219.884 35.745,218.605 33.461 C 217.326 31.177,216.035 28.872,215.736 28.339 C 210.765 19.461,210.754 19.447,209.897 20.841 M210.931 55.277 C 211.627 56.261,212.676 57.710,213.263 58.497 C 213.849 59.284,215.010 60.875,215.841 62.032 C 216.672 63.188,217.674 64.575,218.068 65.112 C 218.462 65.649,219.104 66.554,219.496 67.123 C 219.887 67.692,220.722 68.840,221.350 69.674 C 222.607 71.343,222.592 71.851,221.205 74.608 C 220.812 75.389,220.286 76.673,220.036 77.460 C 219.786 78.247,219.256 79.535,218.858 80.322 C 218.461 81.109,218.016 82.236,217.869 82.826 C 217.722 83.417,217.115 85.027,216.520 86.404 C 215.509 88.743,214.624 91.020,212.141 97.674 C 211.590 99.150,210.645 101.646,210.040 103.220 C 209.435 104.794,208.942 106.294,208.943 106.552 C 208.944 106.811,208.546 107.894,208.059 108.958 C 207.572 110.022,207.076 111.340,206.956 111.887 C 206.836 112.433,206.290 114.088,205.742 115.564 C 205.195 117.039,204.501 119.052,204.201 120.036 C 203.901 121.020,203.399 122.549,203.086 123.435 C 201.951 126.639,200.072 132.279,198.913 135.957 C 198.262 138.023,197.294 141.082,196.760 142.755 C 196.227 144.428,195.266 147.567,194.625 149.732 C 193.984 151.896,193.018 155.116,192.479 156.887 C 191.939 158.658,190.986 161.959,190.361 164.222 C 189.736 166.485,188.760 169.946,188.193 171.914 C 187.627 173.882,186.604 177.585,185.920 180.143 C 185.236 182.701,184.263 186.324,183.757 188.193 C 183.252 190.063,182.692 192.317,182.514 193.202 C 182.336 194.088,181.794 196.342,181.309 198.211 C 179.243 206.188,174.890 225.319,173.617 232.021 C 173.430 233.005,172.921 235.581,172.486 237.746 C 169.898 250.624,167.429 264.045,167.099 267.027 C 166.965 268.239,166.425 271.887,165.899 275.134 C 156.747 331.651,155.091 397.721,161.614 446.154 C 162.131 449.991,162.660 454.258,162.790 455.635 C 163.068 458.575,164.529 467.073,166.025 474.454 C 166.608 477.326,167.084 479.970,167.084 480.330 C 167.084 481.631,170.753 497.107,172.872 504.746 C 173.487 506.963,173.885 508.881,173.757 509.010 C 173.629 509.138,173.524 509.052,173.524 508.818 C 173.524 508.585,173.091 507.713,172.561 506.880 C 172.031 506.048,171.204 504.642,170.723 503.757 C 170.242 502.871,169.477 501.503,169.024 500.716 C 168.571 499.928,167.709 498.399,167.109 497.317 C 166.509 496.234,165.593 494.624,165.075 493.739 C 164.557 492.853,163.485 491.002,162.694 489.624 C 161.903 488.247,160.720 486.234,160.065 485.152 C 159.411 484.070,158.675 482.782,158.431 482.290 C 158.186 481.798,157.587 480.751,157.100 479.964 C 156.612 479.177,155.819 477.809,155.338 476.923 C 154.857 476.038,154.092 474.669,153.639 473.882 C 151.688 470.492,150.324 467.702,149.967 466.369 C 143.613 442.624,139.642 417.401,136.871 383.184 C 135.080 361.068,135.348 315.268,137.389 294.633 C 137.797 290.501,138.273 285.188,138.445 282.826 C 138.998 275.250,141.670 255.198,143.832 242.397 C 144.397 239.052,145.002 235.429,145.178 234.347 C 146.134 228.457,150.613 207.435,152.838 198.390 C 154.204 192.841,155.829 186.571,156.779 183.184 C 157.194 181.708,157.735 179.615,157.983 178.533 C 158.436 176.556,159.328 173.541,161.421 166.905 C 162.042 164.937,162.668 162.764,162.811 162.075 C 162.954 161.386,163.464 159.696,163.944 158.318 C 164.423 156.941,165.356 154.123,166.015 152.057 C 168.053 145.675,170.312 139.064,172.558 132.916 C 174.646 127.197,175.733 124.293,176.439 122.540 C 176.836 121.556,177.415 120.027,177.726 119.141 C 178.037 118.256,178.609 116.807,178.996 115.921 C 179.384 115.036,179.989 113.506,180.342 112.522 C 180.694 111.538,181.734 108.962,182.652 106.798 C 183.571 104.633,184.448 102.460,184.602 101.968 C 184.756 101.476,185.286 100.188,185.781 99.106 C 186.275 98.023,187.203 95.930,187.842 94.454 C 188.481 92.979,189.448 90.805,189.990 89.624 C 190.533 88.444,191.742 85.787,192.677 83.721 C 196.558 75.143,205.715 56.414,207.502 53.398 L 208.404 51.877 209.035 52.683 C 209.382 53.126,210.235 54.293,210.931 55.277 M315.595 428.765 C 316.168 430.713,316.637 432.535,316.637 432.813 C 316.637 433.091,317.128 435.120,317.729 437.321 C 318.330 439.523,319.280 443.095,319.840 445.259 C 322.375 455.051,323.167 458.039,324.204 461.717 C 324.815 463.882,325.442 466.401,325.599 467.314 C 325.756 468.228,326.299 470.289,326.806 471.895 C 327.313 473.500,327.728 475.059,327.728 475.359 C 327.728 475.659,328.204 477.623,328.786 479.723 C 329.368 481.824,330.342 485.474,330.950 487.835 C 333.524 497.832,336.928 510.882,339.723 521.467 C 340.981 526.235,341.906 529.777,344.204 538.640 C 344.766 540.805,345.651 544.106,346.171 545.975 C 346.692 547.844,347.250 550.122,347.413 551.035 C 347.576 551.949,348.124 554.010,348.631 555.616 C 349.138 557.221,349.553 558.780,349.553 559.080 C 349.553 559.380,350.029 561.344,350.611 563.444 C 351.193 565.545,352.167 569.195,352.775 571.556 C 354.043 576.479,355.640 582.396,355.913 583.184 C 356.547 585.019,354.834 582.000,351.244 574.955 C 348.987 570.528,345.611 563.927,343.741 560.286 C 341.872 556.646,338.206 549.481,335.596 544.365 C 327.672 528.834,323.925 521.497,323.537 520.748 C 323.333 520.356,322.840 519.392,322.441 518.605 C 322.041 517.818,320.647 515.099,319.342 512.564 L 316.969 507.954 316.635 496.284 C 316.451 489.866,315.825 474.472,315.244 462.075 C 314.069 437.011,313.636 421.008,314.203 423.614 C 314.396 424.499,315.022 426.817,315.595 428.765 M102.130 473.851 L 101.138 510.341 98.395 515.725 C 96.887 518.686,95.489 521.431,95.288 521.825 C 95.088 522.218,94.707 522.943,94.442 523.435 C 93.845 524.545,88.821 534.298,87.532 536.852 C 87.333 537.245,86.219 539.419,85.055 541.682 C 83.892 543.945,82.616 546.440,82.221 547.227 C 81.825 548.014,81.250 549.141,80.942 549.732 C 77.791 555.766,74.782 561.584,72.940 565.201 C 70.271 570.443,70.163 570.460,71.492 565.434 C 72.058 563.291,73.038 559.365,73.670 556.708 C 74.301 554.052,75.291 549.906,75.870 547.496 C 76.449 545.085,77.414 541.060,78.014 538.551 C 78.614 536.042,79.562 532.138,80.121 529.875 C 80.680 527.612,81.393 524.633,81.707 523.256 C 82.020 521.878,82.537 519.705,82.855 518.426 C 84.358 512.384,85.917 506.026,86.934 501.789 C 87.548 499.231,88.526 495.165,89.106 492.755 C 89.686 490.344,90.654 486.319,91.257 483.810 C 92.846 477.196,94.224 471.570,95.353 467.084 C 95.898 464.919,96.468 462.424,96.618 461.538 C 96.769 460.653,97.310 458.448,97.820 456.638 C 98.330 454.829,98.748 453.074,98.748 452.738 C 98.748 452.402,99.289 450.099,99.951 447.620 C 100.612 445.141,101.533 441.503,101.996 439.535 C 103.215 434.355,103.214 434.022,102.130 473.851 M230.411 628.980 C 230.411 695.051,230.406 695.533,229.696 696.243 C 228.919 697.020,228.885 698.489,228.899 730.590 C 228.902 736.592,228.829 741.140,228.738 740.698 C 228.607 740.057,228.329 739.893,227.381 739.893 C 226.301 739.893,226.160 739.768,225.875 738.565 C 225.641 737.575,225.336 737.184,224.677 737.028 C 223.982 736.865,223.740 736.518,223.547 735.405 C 223.019 732.359,222.844 731.993,221.820 731.788 C 220.873 731.599,220.036 730.452,220.036 729.344 C 220.036 729.045,219.573 728.802,218.873 728.735 C 217.845 728.636,217.689 728.477,217.531 727.370 C 217.378 726.294,217.202 726.101,216.280 725.996 C 215.092 725.861,214.683 725.424,214.675 724.280 C 214.670 723.694,214.383 723.461,213.451 723.286 C 212.229 723.057,211.807 722.536,211.807 721.259 C 211.807 720.746,211.554 720.572,210.805 720.572 C 209.534 720.572,208.945 719.983,208.945 718.712 C 208.945 717.797,208.831 717.710,207.631 717.710 C 206.193 717.710,205.009 716.887,205.009 715.888 C 205.009 715.397,204.617 715.197,203.309 715.022 C 200.881 714.697,200.780 714.640,200.652 713.533 C 200.549 712.642,200.339 712.495,198.705 712.170 C 196.532 711.739,195.713 711.145,195.964 710.184 C 196.124 709.571,195.963 709.481,194.704 709.481 C 193.910 709.481,193.006 709.383,192.695 709.264 C 192.181 709.067,192.129 702.256,192.129 635.740 L 192.129 562.433 211.270 562.433 L 230.411 562.433 230.411 628.980 M219.678 680.501 C 219.678 680.698,218.953 680.859,218.068 680.859 L 216.458 680.859 216.458 683.363 L 216.458 685.868 217.889 685.868 L 219.320 685.868 219.320 684.436 L 219.320 683.005 220.751 683.005 L 222.182 683.005 222.182 681.574 C 222.182 680.177,222.153 680.143,220.930 680.143 C 220.242 680.143,219.678 680.304,219.678 680.501 M238.640 683.363 C 238.640 685.714,239.083 686.637,239.584 685.331 C 239.698 685.036,240.176 684.794,240.647 684.794 C 241.446 684.794,241.503 684.663,241.503 682.826 L 241.503 680.859 240.072 680.859 L 238.640 680.859 238.640 683.363 M52.236 693.927 C 52.236 695.098,48.975 695.417,47.678 694.373 C 46.859 693.713,47.612 693.381,49.932 693.381 C 51.758 693.381,52.236 693.494,52.236 693.927 M200.358 694.275 C 200.358 694.832,200.155 695.170,199.821 695.170 C 199.526 695.170,199.284 695.411,199.284 695.707 C 199.284 696.042,198.945 696.243,198.379 696.243 C 197.881 696.243,197.380 696.485,197.267 696.780 C 197.154 697.075,196.837 697.317,196.563 697.317 C 196.270 697.317,196.064 697.685,196.064 698.211 C 196.064 698.737,196.270 699.106,196.562 699.106 C 197.075 699.106,197.695 700.814,197.319 701.190 C 197.203 701.306,196.350 701.489,195.423 701.595 L 193.739 701.789 193.739 704.419 L 193.739 707.049 195.404 707.681 C 197.788 708.585,198.537 707.590,198.560 703.488 C 198.568 702.209,198.682 701.968,199.284 701.968 C 199.811 701.968,200.000 701.729,200.000 701.064 C 200.000 700.347,200.221 700.117,201.073 699.946 C 202.012 699.759,202.147 699.580,202.147 698.524 C 202.147 697.689,202.312 697.317,202.683 697.317 C 203.081 697.317,203.220 696.899,203.220 695.707 C 203.220 694.514,203.081 694.097,202.683 694.097 C 202.388 694.097,202.147 693.936,202.147 693.739 C 202.147 693.542,201.744 693.381,201.252 693.381 C 200.537 693.381,200.358 693.560,200.358 694.275 M218.471 721.479 C 217.828 723.153,218.230 726.175,219.152 726.594 C 219.649 726.821,220.173 727.322,220.316 727.707 C 220.683 728.701,223.579 731.664,224.183 731.664 C 224.460 731.664,224.687 731.986,224.687 732.379 C 224.687 732.773,224.835 733.095,225.015 733.095 C 225.196 733.095,225.599 733.193,225.910 733.312 C 226.553 733.559,226.787 727.247,226.149 726.853 C 225.970 726.742,225.714 726.008,225.581 725.222 C 225.376 724.007,225.208 723.792,224.458 723.792 C 223.664 723.792,222.564 722.109,222.801 721.257 C 222.957 720.694,218.688 720.913,218.471 721.479 M316.279 729.517 C 316.279 729.911,316.047 730.233,315.764 730.233 C 315.131 730.233,314.727 729.644,315.027 729.159 C 315.416 728.530,316.279 728.776,316.279 729.517 M302.980 735.061 C 303.247 735.328,301.923 736.673,301.393 736.673 C 299.923 736.673,298.541 735.210,299.296 734.455 C 299.502 734.248,302.692 734.773,302.980 735.061 M230.373 743.003 C 230.573 743.135,229.661 744.186,229.346 744.186 C 229.201 744.186,229.100 743.717,229.121 743.144 C 229.153 742.280,229.251 742.171,229.696 742.506 C 229.991 742.729,230.296 742.952,230.373 743.003 M236.899 744.420 C 236.563 744.999,236.514 744.950,236.505 744.025 C 236.497 743.255,236.601 743.076,236.889 743.364 C 237.172 743.647,237.175 743.946,236.899 744.420 M213.596 837.746 C 213.596 838.041,213.354 838.283,213.059 838.283 C 212.500 838.283,212.349 837.859,212.761 837.448 C 213.173 837.036,213.596 837.187,213.596 837.746 M212.197 840.133 C 212.542 840.776,212.502 840.991,211.963 841.385 C 211.078 842.032,209.428 841.988,209.168 841.310 C 208.538 839.670,211.363 838.573,212.197 840.133 M246.601 840.037 C 248.125 840.617,247.838 841.421,246.010 841.695 C 244.087 841.983,242.934 841.661,242.934 840.835 C 242.934 839.372,244.159 839.106,246.601 840.037 " stroke="none" fill="#ffffff" fill-rule="evenodd"></path><path id="path3" d="" stroke="none" fill="#100fcfc" fill-rule="evenodd"></path><path id="path4" d="" stroke="none" fill="#100fcfc" fill-rule="evenodd"></path></g></svg>